<svg width="1920" height="960" viewBox="0 0 1920 960" fill="none" xmlns="http://www.w3.org/2000/svg">
<g clip-path="url(#clip0_620_285)">
<rect width="1920" height="960" fill="url(#paint0_linear_620_285)"/>
<path opacity="0.16" d="M71.1111 960V0.000331007M142.223 960V0.000331007M213.333 960V0.000331007M284.445 960V0.000331007M355.556 960V0.000331007M426.667 960V0.000331007M497.779 960V0.000331007M568.889 960V0.000331007M640.001 960V0.000331007M711.112 960V0.000331007M782.223 960V0.000331007M853.335 960V0.000331007M924.445 960V0.000331007M995.557 960V0.000331007M1066.67 960V0.000331007M1137.78 960V0.000331007M1208.89 960V0.000331007M1280 960V0.000331007M1351.11 960V0.000331007M1422.23 960V0.000331007M1493.33 960V0.000331007M1564.44 960V0.000331007M1635.56 960V0.000331007M1706.67 960V0.000331007M1777.79 960V0.000331007M1848.89 960V0.000331007M1920 903.391H0M1920 846.782H0M1920 790.173H0M1920 733.563H0M1920 676.954H0M1920 620.345H0M1920 563.735H0M1920 507.126H0M1920 450.517H0M1920 393.907H0M1920 337.298H0M1920 280.689H0M1920 224.079H0M1920 167.47H0M1920 110.861H0M1920 54.2513H0M1920 960V8.27518e-05L0 0V960L1920 960Z" stroke="url(#paint1_linear_620_285)"/>
<path opacity="0.88" fill-rule="evenodd" clip-rule="evenodd" d="M669.562 547.5C669.562 542.115 673.928 537.75 679.313 537.75H823.125C828.51 537.75 832.875 542.115 832.875 547.5C832.875 552.885 828.51 557.25 823.125 557.25H679.313C673.928 557.25 669.562 552.885 669.562 547.5Z" fill="white"/>
<path fill-rule="evenodd" clip-rule="evenodd" d="M750 464.625C729.807 464.625 713.438 480.995 713.438 501.188C713.438 521.38 729.807 537.75 750 537.75C755.385 537.75 759.75 542.115 759.75 547.5C759.75 552.885 755.385 557.25 750 557.25C719.038 557.25 693.938 532.15 693.938 501.188C693.938 470.225 719.038 445.125 750 445.125C780.962 445.125 806.063 470.225 806.063 501.188C806.063 506.572 801.697 510.938 796.313 510.938C790.928 510.938 786.563 506.572 786.563 501.188C786.563 480.995 770.193 464.625 750 464.625Z" fill="white"/>
<path opacity="0.72" fill-rule="evenodd" clip-rule="evenodd" d="M750 420.75C706.922 420.75 672 455.672 672 498.75C672 504.135 667.635 508.5 662.25 508.5C656.865 508.5 652.5 504.135 652.5 498.75C652.5 444.902 696.152 401.25 750 401.25C803.848 401.25 847.5 444.902 847.5 498.75C847.5 504.135 843.135 508.5 837.75 508.5C832.365 508.5 828 504.135 828 498.75C828 455.672 793.078 420.75 750 420.75Z" fill="white"/>
<path fill-rule="evenodd" clip-rule="evenodd" d="M1006.96 532.266H1019.43C1022.16 532.266 1024.5 530.332 1024.95 527.623L1030.29 495.176C1033.69 474.391 1026.84 459.411 1017.48 451.949C1012.47 448.08 1006.34 445.316 999.662 444.21C975.714 440.341 950.652 456.371 943.412 480.693C936.172 505.015 949.538 527.678 973.486 531.548C983.789 533.206 995.095 532.101 1005.12 527.181C1005.4 527.07 1005.57 527.181 1005.51 527.513L1005.06 530.111C1004.9 531.603 1005.62 532.266 1006.96 532.266ZM979.055 511.648C991.865 513.859 1004.12 505.015 1008.02 491.748C1012.47 478.482 1006.9 465.768 994.092 463.557C981.283 461.346 969.031 470.19 965.132 483.457C960.677 496.723 966.246 509.437 979.055 511.648Z" fill="white"/>
<path d="M1051.27 532.322C1053.94 532.322 1056.32 530.332 1056.77 527.734C1063.07 492.996 1068.1 458.753 1074.12 423.975C1074.39 422.317 1073.06 420.769 1071.38 420.769L1058.08 420.769C1055.4 420.769 1053.06 422.759 1052.62 425.357C1046.31 460.095 1041.28 494.338 1035.27 529.116C1034.99 530.774 1036.33 532.322 1038 532.322H1051.27Z" fill="white"/>
<path fill-rule="evenodd" clip-rule="evenodd" d="M1137.13 532.266H1149.6C1152.33 532.266 1154.67 530.332 1155.11 527.623L1160.46 495.176C1163.86 474.391 1157.01 459.411 1147.65 451.949C1142.64 448.08 1136.51 445.316 1129.83 444.21C1105.88 440.341 1080.82 456.371 1073.58 480.693C1066.34 505.015 1079.71 527.678 1103.65 531.548C1113.96 533.206 1125.26 532.101 1135.29 527.181C1135.57 527.07 1135.73 527.181 1135.68 527.513L1135.23 530.111C1135.07 531.603 1135.79 532.266 1137.13 532.266ZM1109.22 511.648C1122.03 513.859 1134.29 505.015 1138.18 491.748C1142.64 478.482 1137.07 465.768 1124.26 463.557C1111.45 461.346 1099.2 470.19 1095.3 483.457C1090.85 496.723 1096.41 509.437 1109.22 511.648Z" fill="white"/>
<path fill-rule="evenodd" clip-rule="evenodd" d="M1231.54 559.231H1243.63C1246.36 559.231 1248.7 557.286 1249.14 554.577L1259.12 495.176C1262.51 474.391 1255.66 459.411 1246.31 451.949C1241.29 448.08 1235.17 445.316 1228.49 444.21C1204.54 440.341 1179.48 456.371 1172.24 480.693C1165 505.015 1178.36 527.678 1202.31 531.548C1212.61 533.206 1223.92 532.101 1233.94 527.181C1234.22 527.07 1234.39 527.181 1234.33 527.513L1229.62 556.504C1229.45 557.996 1230.2 559.231 1231.54 559.231ZM1207.88 511.648C1220.69 513.859 1232.94 505.015 1236.84 491.748C1241.29 478.482 1235.73 465.768 1222.92 463.557C1210.11 461.346 1197.85 470.19 1193.96 483.457C1189.5 496.723 1195.07 509.437 1207.88 511.648Z" fill="white"/>
<path d="M908.507 532.266C911.18 532.266 913.519 530.332 913.965 527.734C915.977 516.64 918.275 501.995 920.211 489.923H926.681C929.325 489.923 931.638 488.064 932.079 485.44L933.456 477.841C933.787 476.146 932.465 474.615 930.757 474.615H922.745C923.009 473.127 923.249 471.832 923.462 470.769C927.308 451.539 936.692 444.804 953.634 444.804C956.084 444.804 958.201 443.146 958.869 440.824L962.378 424.443C962.823 422.84 961.709 421.071 960.038 420.96C938.207 418.915 912.195 433.508 904.231 455.121C903.121 457.876 892.822 517.452 890.825 529.005L890.806 529.116C890.528 530.774 891.864 532.322 893.535 532.322H908.451L908.507 532.266Z" fill="white"/>
</g>
<defs>
<linearGradient id="paint0_linear_620_285" x1="628" y1="-71" x2="640.116" y2="1261.58" gradientUnits="userSpaceOnUse">
<stop stop-color="#FF8A8A"/>
<stop offset="0.05" stop-color="#FF93AD"/>
<stop offset="0.11" stop-color="#FF8AAD"/>
<stop offset="0.15" stop-color="#FF80BD"/>
<stop offset="0.24" stop-color="#FF66DD"/>
<stop offset="0.33" stop-color="#CE44FF"/>
<stop offset="0.5625" stop-color="#4900FF"/>
<stop offset="0.8125" stop-color="#003FFF"/>
<stop offset="1" stop-color="#003FFF"/>
</linearGradient>
<linearGradient id="paint1_linear_620_285" x1="960" y1="0" x2="960" y2="960" gradientUnits="userSpaceOnUse">
<stop offset="0.114583" stop-color="white" stop-opacity="0"/>
<stop offset="0.598958" stop-color="white"/>
<stop offset="1" stop-color="white" stop-opacity="0.16"/>
</linearGradient>
<clipPath id="clip0_620_285">
<rect width="1920" height="960" fill="white"/>
</clipPath>
</defs>
</svg>
