<svg width="120" height="32" viewBox="0 0 120 32" fill="none" xmlns="http://www.w3.org/2000/svg">
<g clip-path="url(#clip0_507_282)">
<path d="M31.9605 13.68H32.08C32.1992 13.667 32.3145 13.6299 32.4189 13.5707C32.5234 13.5117 32.6148 13.4319 32.6877 13.3362C32.7605 13.2406 32.8133 13.1311 32.8427 13.0143C32.8722 12.8975 32.8778 12.776 32.8591 12.6571C32.4328 9.40148 30.8429 6.41273 28.3859 4.2476C25.9288 2.08247 22.772 0.888672 19.5039 0.888672C16.2356 0.888672 13.0789 2.08247 10.6218 4.2476C8.16473 6.41273 6.57494 9.40148 6.14863 12.6571C6.13293 12.7756 6.14064 12.8962 6.1713 13.0117C6.20195 13.1273 6.25497 13.2356 6.32732 13.3307C6.39966 13.4256 6.48991 13.5054 6.59293 13.5653C6.69595 13.6253 6.8097 13.6642 6.92771 13.68C7.0457 13.6957 7.1657 13.688 7.28069 13.6572C7.39576 13.6264 7.50358 13.5732 7.59812 13.5005C7.69266 13.4278 7.77203 13.3371 7.83172 13.2336C7.89141 13.1301 7.93016 13.0158 7.94588 12.8972C8.31103 10.0769 9.68536 7.48642 11.8122 5.60954C13.9391 3.73264 16.673 2.69757 19.5039 2.69757C22.3346 2.69757 25.0687 3.73264 27.1955 5.60954C29.3224 7.48642 30.6967 10.0769 31.0618 12.8972C31.0936 13.1142 31.2018 13.3124 31.3667 13.4561C31.5315 13.5997 31.7423 13.6791 31.9605 13.68Z" fill="white"/>
<path fill-rule="evenodd" clip-rule="evenodd" d="M30.9881 13.7778C29.1266 13.7778 27.4576 14.6006 26.3202 15.9067C25.367 17.0013 24.7905 18.4319 24.7905 20C24.7905 20.4909 24.3941 20.8889 23.905 20.8889C23.4161 20.8889 23.0197 20.4909 23.0197 20C23.0197 17.9854 23.7626 16.1427 24.9871 14.7366C26.4465 13.0607 28.5944 12 30.9881 12C35.3889 12 38.9564 15.5817 38.9564 20C38.9564 24.4183 35.3889 28 30.9881 28C30.4991 28 30.1027 27.602 30.1027 27.1111C30.1027 26.6202 30.4991 26.2222 30.9881 26.2222C34.4109 26.2222 37.1857 23.4365 37.1857 20C37.1857 16.5635 34.4109 13.7778 30.9881 13.7778Z" fill="white"/>
<path d="M8.1097 28.1251C10.1171 28.121 12.0508 27.3645 13.5323 26.0036C13.7084 25.8409 13.8129 25.6145 13.823 25.3743C13.8329 25.134 13.7475 24.8997 13.5855 24.7228C13.4234 24.5458 13.1981 24.4408 12.959 24.4308C12.7199 24.4208 12.4867 24.5066 12.3105 24.6694C11.1642 25.7262 9.66546 26.3132 8.1097 26.315C6.52361 26.2975 5.00187 25.6825 3.84562 24.5916C2.68937 23.5007 1.98288 22.0134 1.866 20.4241C1.74912 18.8348 2.23035 17.2593 3.21445 16.0095C4.19855 14.7597 5.61379 13.9266 7.1801 13.6751C7.48751 13.6251 7.79826 13.5984 8.1097 13.5951C8.34914 13.5951 8.57885 13.4995 8.74824 13.3293C8.91756 13.1592 9.01273 12.9284 9.01273 12.6878C9.01273 12.4472 8.91756 12.2164 8.74824 12.0463C8.57885 11.8761 8.34914 11.7805 8.1097 11.7805C7.70789 11.7829 7.30692 11.8156 6.91005 11.8783C4.88431 12.1886 3.04968 13.2554 1.77278 14.8656C0.495864 16.4758 -0.129293 18.5108 0.0222256 20.564C0.173743 22.6171 1.09079 24.5372 2.59009 25.9406C4.08939 27.344 6.06054 28.1273 8.1097 28.134V28.1251Z" fill="white"/>
<path d="M24.9 31.9998C25.1692 31.992 25.4268 31.8877 25.6262 31.7058C25.8256 31.524 25.9538 31.2764 25.9874 31.0079C26.0211 30.7394 25.9581 30.4677 25.8098 30.2417C25.6615 30.0159 25.4377 29.8506 25.1789 29.776C23.1687 29.2511 21.3357 28.1937 19.871 26.7141C18.4064 25.2346 17.3639 23.3872 16.8525 21.3647C16.341 19.3423 16.3792 17.2189 16.9631 15.2164C17.5471 13.2138 18.6554 11.4055 20.1723 9.98016C20.2884 9.87999 20.3832 9.75728 20.4508 9.61933C20.5185 9.48138 20.5576 9.33112 20.5659 9.17759C20.5741 9.02399 20.5513 8.87039 20.4989 8.7259C20.4464 8.58149 20.3654 8.44917 20.2607 8.33703C20.1559 8.22489 20.0297 8.13529 19.8895 8.07352C19.7494 8.01175 19.5982 7.97912 19.4452 7.97759C19.2921 7.97613 19.1404 8.00583 18.9991 8.06489C18.8578 8.12396 18.7298 8.21112 18.623 8.32117C16.391 10.421 14.9112 13.2022 14.4132 16.2333C14.293 16.9804 14.2322 17.7359 14.2317 18.4927C14.2238 21.5802 15.2413 24.5822 17.1232 27.0231C19.005 29.4641 21.6436 31.2044 24.6211 31.9686C24.7122 31.9921 24.806 32.0026 24.9 31.9998Z" fill="white"/>
<path d="M27.3171 28.3528C27.4715 28.3625 27.6264 28.3403 27.772 28.2876C27.9176 28.2348 28.0509 28.1528 28.1637 28.0463C28.2765 27.9398 28.3664 27.8113 28.4279 27.6685C28.4893 27.5258 28.5211 27.372 28.5211 27.2164C28.5211 27.0609 28.4893 26.9071 28.4279 26.7643C28.3664 26.6216 28.2765 26.4931 28.1637 26.3866C28.0509 26.2801 27.9176 26.198 27.772 26.1453C27.6264 26.0926 27.4715 26.0704 27.3171 26.0801C26.1791 26.066 25.0591 25.7941 24.0403 25.2845C23.0216 24.7749 22.1305 24.0408 21.4335 23.137C20.7364 22.2332 20.2515 21.183 20.0148 20.0646C19.778 18.9462 19.7956 17.7887 20.0662 16.678C20.1019 16.532 20.1087 16.3804 20.0861 16.2317C20.0635 16.0831 20.012 15.9404 19.9345 15.8117C19.8571 15.6831 19.7551 15.5711 19.6345 15.4819C19.514 15.3929 19.3771 15.3286 19.2317 15.2927C19.0864 15.2568 18.9355 15.2499 18.7876 15.2726C18.6396 15.2953 18.4975 15.3471 18.3695 15.4249C18.2415 15.5027 18.1299 15.6051 18.0413 15.7263C17.9526 15.8475 17.8886 15.985 17.8529 16.131C17.4961 17.5768 17.4703 19.0849 17.7773 20.5421C18.0843 21.9993 18.7163 23.3676 19.6255 24.544C20.5348 25.7204 21.6978 26.6744 23.0269 27.3341C24.3561 27.9938 25.8169 28.342 27.2994 28.3528H27.3171Z" fill="white"/>
<path d="M16.5737 31.9063C16.7969 31.9067 17.0152 31.8405 17.201 31.7161C17.3868 31.5918 17.5317 31.415 17.6175 31.2079C17.7033 31.0008 17.726 30.7728 17.6828 30.5528C17.6396 30.3328 17.5324 30.1305 17.3749 29.9717C15.8728 28.4579 14.6828 26.6612 13.873 24.6846C13.0633 22.7079 12.6497 20.5902 12.6561 18.4526C12.6574 17.8121 12.6943 17.1721 12.7667 16.5358C12.9031 15.3789 13.1612 14.2399 13.537 13.1378C13.6223 12.8556 13.5953 12.5511 13.4616 12.2885C13.3279 12.026 13.098 11.8257 12.8203 11.7301C12.5426 11.6343 12.2388 11.6507 11.9729 11.7756C11.7069 11.9004 11.4995 12.1241 11.3945 12.3996C10.2772 15.6872 10.0946 19.2228 10.8672 22.609C11.6398 25.9952 13.337 29.0978 15.768 31.5683C15.8735 31.6752 15.999 31.76 16.1373 31.8181C16.2755 31.8761 16.4239 31.9061 16.5737 31.9063Z" fill="white"/>
<path d="M59.1408 7.4397H63.3794L71.0567 28.583H67.1503L65.7928 24.8376H56.7425L55.385 28.583H51.4783L59.1408 7.4397ZM58.085 21.1526H64.4353L61.2526 12.4386L58.085 21.1526Z" fill="white"/>
<path d="M72.375 13.4807H76.0557V28.583H72.375V13.4807ZM74.2456 11.5324C73.7023 11.5324 73.2445 11.3562 72.8731 11.0039C72.5009 10.6414 72.3145 10.1883 72.3145 9.64463C72.3145 9.11099 72.5009 8.66299 72.8731 8.30056C73.2445 7.93805 73.6974 7.75684 74.2303 7.75684C74.7631 7.75684 75.2105 7.93805 75.5729 8.30056C75.9451 8.66299 76.1308 9.11099 76.1308 9.64463C76.1308 10.1883 75.9499 10.6414 75.5875 11.0039C75.2258 11.3562 74.7784 11.5324 74.2456 11.5324Z" fill="white"/>
<path d="M78.7193 28.5831L78.704 13.4807H82.3847L82.3993 14.8248C82.9127 14.2812 83.5256 13.8533 84.24 13.5411C84.9537 13.219 85.7231 13.0579 86.5475 13.0579C87.1005 13.0579 87.6536 13.1384 88.2066 13.2995L86.759 17.0147C86.3764 16.8636 85.9944 16.7882 85.6125 16.7882C85.0191 16.7882 84.4758 16.9341 83.9833 17.2261C83.5005 17.508 83.1137 17.8956 82.8216 18.389C82.5405 18.8723 82.3993 19.4109 82.3993 20.0049V28.5831H78.7193Z" fill="white"/>
<path d="M109.985 29.2174L107.631 26.8916C106.807 27.5158 105.887 28.0042 104.871 28.3565C103.866 28.709 102.805 28.8852 101.688 28.8852C100.26 28.8852 98.9183 28.6032 97.6612 28.0394C96.4042 27.4656 95.2981 26.6802 94.343 25.6834C93.3871 24.6766 92.6379 23.5087 92.0953 22.1797C91.552 20.8507 91.2807 19.431 91.2807 17.9209C91.2807 16.4106 91.552 14.9961 92.0953 13.6771C92.6379 12.3481 93.3871 11.1802 94.343 10.1733C95.2981 9.16649 96.4042 8.38117 97.6612 7.81734C98.9183 7.2435 100.26 6.95654 101.688 6.95654C103.126 6.95654 104.474 7.2435 105.731 7.81734C106.988 8.38117 108.094 9.16649 109.049 10.1733C110.005 11.1802 110.749 12.3481 111.281 13.6771C111.825 14.9961 112.096 16.4106 112.096 17.9209C112.096 19.0988 111.926 20.2214 111.583 21.2886C111.242 22.3458 110.774 23.3225 110.181 24.2185L112.579 26.6198L109.985 29.2174ZM101.688 25.2002C102.272 25.2002 102.845 25.1146 103.408 24.9435C103.971 24.7622 104.489 24.5105 104.961 24.1883L103.046 22.2703L105.64 19.6576L107.435 21.4699C107.757 20.9463 107.999 20.3825 108.159 19.7785C108.33 19.1744 108.416 18.5552 108.416 17.9209C108.416 16.914 108.24 15.9726 107.888 15.0967C107.536 14.2208 107.048 13.4505 106.425 12.786C105.811 12.1115 105.097 11.5879 104.283 11.2154C103.478 10.8328 102.614 10.6415 101.688 10.6415C100.763 10.6415 99.8936 10.8328 99.079 11.2154C98.2643 11.598 97.5457 12.1266 96.9217 12.8011C96.3089 13.4656 95.8261 14.2358 95.4741 15.1118C95.1318 15.9878 94.9614 16.9241 94.9614 17.9209C94.9614 18.9176 95.1374 19.8589 95.4887 20.745C95.8407 21.6209 96.3235 22.3962 96.937 23.0708C97.5604 23.7353 98.2748 24.2588 99.079 24.6414C99.8936 25.0139 100.763 25.2002 101.688 25.2002Z" fill="white"/>
<path d="M114.58 28.583V7.4397H118.261V28.583H114.58Z" fill="white"/>
</g>
<defs>
<clipPath id="clip0_507_282">
<rect width="119.652" height="32" fill="white"/>
</clipPath>
</defs>
</svg>
