<svg width="920" height="256" viewBox="0 0 920 256" fill="none" xmlns="http://www.w3.org/2000/svg">
<path d="M856.003 130.709V170.315H840.233V133.839C840.233 125.773 835.056 120.476 827.352 120.476C819.767 120.476 814.35 125.532 814.35 133.839V170.315H798.58V108.077H814.35V113.373C818.684 108.919 824.703 106.391 831.445 106.391C846.011 106.391 856.003 117.105 856.003 130.709Z" fill="white"/>
<path d="M792.178 139.256C792.178 157.313 776.889 172 757.989 172C739.209 172 723.8 157.313 723.8 139.256C723.8 121.198 739.209 106.512 757.989 106.512C776.889 106.512 792.178 121.078 792.178 139.256ZM776.528 139.256C776.528 128.782 768.342 120.476 757.989 120.476C747.756 120.476 739.45 128.782 739.45 139.256C739.45 149.729 747.756 158.036 757.989 158.036C768.342 158.036 776.528 149.729 776.528 139.256Z" fill="white"/>
<path d="M709.756 101.456C704.821 101.456 700.848 97.6033 700.848 92.6676C700.848 87.7319 704.821 84 709.756 84C714.692 84 718.424 87.7319 718.424 92.6676C718.424 97.6033 714.692 101.456 709.756 101.456ZM717.581 108.077V170.315H701.811V108.077H717.581Z" fill="white"/>
<path d="M682.765 170.315C671.449 170.315 665.671 163.573 665.671 154.665V121.68H653.512V108.077H665.671V90.0192H681.321V108.077H695.044V121.68H681.321V151.896C681.321 155.146 683.608 156.711 687.219 156.711H695.044V170.315H682.765Z" fill="white"/>
<path d="M592.414 152.859C592.414 141.663 599.998 135.283 613.24 134.32L631.538 132.996V130.588C631.538 124.449 627.445 120.717 620.102 120.717C614.444 120.717 609.147 122.523 603.61 126.254L596.989 115.059C604.212 109.762 612.518 106.752 622.028 106.752C636.956 106.752 646.827 115.42 646.827 128.662V153.1C646.827 155.387 648.031 156.711 650.318 156.711H653.569V170.315H646.225C640.206 170.315 635.632 167.546 633.465 162.971C629.131 168.509 622.269 171.88 613.963 171.88C601.563 171.88 592.414 163.814 592.414 152.859ZM607.462 152.739C607.462 157.072 611.555 159.841 617.454 159.841C625.279 159.841 631.538 154.785 631.538 148.525V144.553L615.407 145.997C610.11 146.479 607.462 148.646 607.462 152.739Z" fill="white"/>
<path d="M575.549 170.315C564.233 170.315 558.455 163.573 558.455 154.665V121.68H546.296V108.077H558.455V90.0192H574.105V108.077H587.828V121.68H574.105V151.896C574.105 155.146 576.392 156.711 580.003 156.711H587.828V170.315H575.549Z" fill="white"/>
<path d="M545.009 139.256C545.009 157.313 529.72 172 510.82 172C492.04 172 476.631 157.313 476.631 139.256C476.631 121.198 492.04 106.512 510.82 106.512C529.72 106.512 545.009 121.078 545.009 139.256ZM529.359 139.256C529.359 128.782 521.173 120.476 510.82 120.476C500.588 120.476 492.281 128.782 492.281 139.256C492.281 149.729 500.588 158.036 510.82 158.036C521.173 158.036 529.359 149.729 529.359 139.256Z" fill="white"/>
<path d="M469.918 130.709V170.315H454.148V133.839C454.148 125.773 448.971 120.476 441.267 120.476C433.682 120.476 428.265 125.532 428.265 133.839V170.315H412.495V108.077H428.265V113.373C432.599 108.919 438.618 106.391 445.36 106.391C459.926 106.391 469.918 117.105 469.918 130.709Z" fill="white"/>
<path d="M404.615 130.709V170.315H388.844V133.839C388.844 125.773 383.668 120.476 375.963 120.476C368.379 120.476 362.962 125.532 362.962 133.839V170.315H347.192V108.077H362.962V113.373C367.296 108.919 373.315 106.391 380.056 106.391C394.623 106.391 404.615 117.105 404.615 130.709Z" fill="white"/>
<path d="M307.885 86.0465L343.398 170.315H326.063L317.756 149.729H281.16L272.854 170.315H256L291.513 86.0465H307.885ZM286.698 135.644H312.098L299.458 104.104L286.698 135.644Z" fill="white"/>
<path opacity="0.08" d="M61.8461 75.6923V180.308H69.5385C72.9371 180.308 75.6923 183.063 75.6923 186.462V194.154H180.308V186.462C180.308 183.063 183.063 180.308 186.462 180.308H194.154V75.6923H186.462C183.063 75.6923 180.308 72.9371 180.308 69.5384V61.8461H75.6923V69.5384C75.6923 72.9371 72.9371 75.6923 69.5385 75.6923H61.8461Z" fill="white"/>
<path opacity="0.4" fill-rule="evenodd" clip-rule="evenodd" d="M88 63.9231C88 64.4754 87.5523 64.9231 87 64.9231H82.8462C82.2939 64.9231 81.8462 64.4754 81.8462 63.9231V59.7692C81.8462 59.2169 82.2939 58.7692 82.8462 58.7692H87C87.5523 58.7692 88 59.2169 88 59.7692V63.9231ZM100.308 63.9231C100.308 64.4754 99.86 64.9231 99.3077 64.9231H95.1539C94.6016 64.9231 94.1539 64.4754 94.1539 63.9231V59.7692C94.1539 59.2169 94.6016 58.7692 95.1539 58.7692H99.3077C99.86 58.7692 100.308 59.2169 100.308 59.7692V63.9231ZM112.615 63.9231C112.615 64.4754 112.168 64.9231 111.615 64.9231H107.462C106.909 64.9231 106.462 64.4754 106.462 63.9231V59.7692C106.462 59.2169 106.909 58.7692 107.462 58.7692H111.615C112.168 58.7692 112.615 59.2169 112.615 59.7692V63.9231ZM124.923 63.9231C124.923 64.4754 124.475 64.9231 123.923 64.9231H119.769C119.217 64.9231 118.769 64.4754 118.769 63.9231V59.7692C118.769 59.2169 119.217 58.7692 119.769 58.7692H123.923C124.475 58.7692 124.923 59.2169 124.923 59.7692V63.9231ZM137.231 63.9231C137.231 64.4754 136.783 64.9231 136.231 64.9231H132.077C131.525 64.9231 131.077 64.4754 131.077 63.9231V59.7692C131.077 59.2169 131.525 58.7692 132.077 58.7692H136.231C136.783 58.7692 137.231 59.2169 137.231 59.7692V63.9231ZM149.538 63.9231C149.538 64.4754 149.091 64.9231 148.538 64.9231H144.385C143.832 64.9231 143.385 64.4754 143.385 63.9231V59.7692C143.385 59.2169 143.832 58.7692 144.385 58.7692H148.538C149.091 58.7692 149.538 59.2169 149.538 59.7692V63.9231ZM161.846 63.9231C161.846 64.4754 161.398 64.9231 160.846 64.9231H156.692C156.14 64.9231 155.692 64.4754 155.692 63.9231V59.7692C155.692 59.2169 156.14 58.7692 156.692 58.7692H160.846C161.398 58.7692 161.846 59.2169 161.846 59.7692V63.9231ZM174.154 63.9231C174.154 64.4754 173.706 64.9231 173.154 64.9231H169C168.448 64.9231 168 64.4754 168 63.9231V59.7692C168 59.2169 168.448 58.7692 169 58.7692H173.154C173.706 58.7692 174.154 59.2169 174.154 59.7692V63.9231ZM59.7692 88C59.217 88 58.7692 87.5523 58.7692 87V82.8461C58.7692 82.2939 59.217 81.8461 59.7692 81.8461H63.9231C64.4754 81.8461 64.9231 82.2939 64.9231 82.8461V87C64.9231 87.5523 64.4754 88 63.9231 88H59.7692ZM192.077 88C191.525 88 191.077 87.5523 191.077 87V82.8461C191.077 82.2939 191.525 81.8461 192.077 81.8461H196.231C196.783 81.8461 197.231 82.2939 197.231 82.8461V87C197.231 87.5523 196.783 88 196.231 88H192.077ZM59.7692 100.308C59.217 100.308 58.7692 99.86 58.7692 99.3077V95.1538C58.7692 94.6016 59.217 94.1538 59.7692 94.1538H63.9231C64.4754 94.1538 64.9231 94.6016 64.9231 95.1538V99.3077C64.9231 99.86 64.4754 100.308 63.9231 100.308H59.7692ZM192.077 100.308C191.525 100.308 191.077 99.86 191.077 99.3077V95.1538C191.077 94.6016 191.525 94.1538 192.077 94.1538H196.231C196.783 94.1538 197.231 94.6016 197.231 95.1538V99.3077C197.231 99.86 196.783 100.308 196.231 100.308H192.077ZM59.7692 112.615C59.217 112.615 58.7692 112.168 58.7692 111.615V107.462C58.7692 106.909 59.217 106.462 59.7692 106.462H63.9231C64.4754 106.462 64.9231 106.909 64.9231 107.462V111.615C64.9231 112.168 64.4754 112.615 63.9231 112.615H59.7692ZM192.077 112.615C191.525 112.615 191.077 112.168 191.077 111.615V107.462C191.077 106.909 191.525 106.462 192.077 106.462H196.231C196.783 106.462 197.231 106.909 197.231 107.462V111.615C197.231 112.168 196.783 112.615 196.231 112.615H192.077ZM59.7692 124.923C59.217 124.923 58.7692 124.475 58.7692 123.923V119.769C58.7692 119.217 59.217 118.769 59.7692 118.769H63.9231C64.4754 118.769 64.9231 119.217 64.9231 119.769V123.923C64.9231 124.475 64.4754 124.923 63.9231 124.923H59.7692ZM192.077 124.923C191.525 124.923 191.077 124.475 191.077 123.923V119.769C191.077 119.217 191.525 118.769 192.077 118.769H196.231C196.783 118.769 197.231 119.217 197.231 119.769V123.923C197.231 124.475 196.783 124.923 196.231 124.923H192.077ZM59.7692 137.231C59.217 137.231 58.7692 136.783 58.7692 136.231V132.077C58.7692 131.525 59.217 131.077 59.7692 131.077H63.9231C64.4754 131.077 64.9231 131.525 64.9231 132.077V136.231C64.9231 136.783 64.4754 137.231 63.9231 137.231H59.7692ZM192.077 137.231C191.525 137.231 191.077 136.783 191.077 136.231V132.077C191.077 131.525 191.525 131.077 192.077 131.077H196.231C196.783 131.077 197.231 131.525 197.231 132.077V136.231C197.231 136.783 196.783 137.231 196.231 137.231H192.077ZM59.7692 149.538C59.217 149.538 58.7692 149.091 58.7692 148.538V144.385C58.7692 143.832 59.217 143.385 59.7692 143.385H63.9231C64.4754 143.385 64.9231 143.832 64.9231 144.385V148.538C64.9231 149.091 64.4754 149.538 63.9231 149.538H59.7692ZM192.077 149.538C191.525 149.538 191.077 149.091 191.077 148.538V144.385C191.077 143.832 191.525 143.385 192.077 143.385H196.231C196.783 143.385 197.231 143.832 197.231 144.385V148.538C197.231 149.091 196.783 149.538 196.231 149.538H192.077ZM59.7692 161.846C59.217 161.846 58.7692 161.398 58.7692 160.846V156.692C58.7692 156.14 59.217 155.692 59.7692 155.692H63.9231C64.4754 155.692 64.9231 156.14 64.9231 156.692V160.846C64.9231 161.398 64.4754 161.846 63.9231 161.846H59.7692ZM192.077 161.846C191.525 161.846 191.077 161.398 191.077 160.846V156.692C191.077 156.14 191.525 155.692 192.077 155.692H196.231C196.783 155.692 197.231 156.14 197.231 156.692V160.846C197.231 161.398 196.783 161.846 196.231 161.846H192.077ZM59.7692 174.154C59.217 174.154 58.7692 173.706 58.7692 173.154V169C58.7692 168.448 59.217 168 59.7692 168H63.9231C64.4754 168 64.9231 168.448 64.9231 169V173.154C64.9231 173.706 64.4754 174.154 63.9231 174.154H59.7692ZM192.077 174.154C191.525 174.154 191.077 173.706 191.077 173.154V169C191.077 168.448 191.525 168 192.077 168H196.231C196.783 168 197.231 168.448 197.231 169V173.154C197.231 173.706 196.783 174.154 196.231 174.154H192.077ZM88 196.231C88 196.783 87.5523 197.231 87 197.231H82.8462C82.2939 197.231 81.8462 196.783 81.8462 196.231V192.077C81.8462 191.525 82.2939 191.077 82.8462 191.077H87C87.5523 191.077 88 191.525 88 192.077V196.231ZM100.308 196.231C100.308 196.783 99.86 197.231 99.3077 197.231H95.1539C94.6016 197.231 94.1539 196.783 94.1539 196.231V192.077C94.1539 191.525 94.6016 191.077 95.1539 191.077H99.3077C99.86 191.077 100.308 191.525 100.308 192.077V196.231ZM112.615 196.231C112.615 196.783 112.168 197.231 111.615 197.231H107.462C106.909 197.231 106.462 196.783 106.462 196.231V192.077C106.462 191.525 106.909 191.077 107.462 191.077H111.615C112.168 191.077 112.615 191.525 112.615 192.077V196.231ZM124.923 196.231C124.923 196.783 124.475 197.231 123.923 197.231H119.769C119.217 197.231 118.769 196.783 118.769 196.231V192.077C118.769 191.525 119.217 191.077 119.769 191.077H123.923C124.475 191.077 124.923 191.525 124.923 192.077V196.231ZM137.231 196.231C137.231 196.783 136.783 197.231 136.231 197.231H132.077C131.525 197.231 131.077 196.783 131.077 196.231V192.077C131.077 191.525 131.525 191.077 132.077 191.077H136.231C136.783 191.077 137.231 191.525 137.231 192.077V196.231ZM149.538 196.231C149.538 196.783 149.091 197.231 148.538 197.231H144.385C143.832 197.231 143.385 196.783 143.385 196.231V192.077C143.385 191.525 143.832 191.077 144.385 191.077H148.538C149.091 191.077 149.538 191.525 149.538 192.077V196.231ZM161.846 196.231C161.846 196.783 161.398 197.231 160.846 197.231H156.692C156.14 197.231 155.692 196.783 155.692 196.231V192.077C155.692 191.525 156.14 191.077 156.692 191.077H160.846C161.398 191.077 161.846 191.525 161.846 192.077V196.231ZM174.154 196.231C174.154 196.783 173.706 197.231 173.154 197.231H169C168.448 197.231 168 196.783 168 196.231V192.077C168 191.525 168.448 191.077 169 191.077H173.154C173.706 191.077 174.154 191.525 174.154 192.077V196.231Z" fill="white"/>
<g opacity="0.8">
<path fill-rule="evenodd" clip-rule="evenodd" d="M48 54.1538C48 50.7552 50.7552 48 54.1538 48H69.5385C72.9371 48 75.6923 50.7552 75.6923 54.1538V69.5385C75.6923 72.9371 72.9371 75.6923 69.5385 75.6923H54.1538C50.7552 75.6923 48 72.9371 48 69.5385V54.1538ZM69.5385 57.4872C69.5385 55.6462 68.0461 54.1538 66.2051 54.1538H57.4872C55.6462 54.1538 54.1538 55.6462 54.1538 57.4872V66.2051C54.1538 68.0461 55.6462 69.5385 57.4872 69.5385H66.2051C68.0461 69.5385 69.5385 68.0461 69.5385 66.2051V57.4872Z" fill="white"/>
<path fill-rule="evenodd" clip-rule="evenodd" d="M48 186.462C48 183.063 50.7552 180.308 54.1538 180.308H69.5385C72.9371 180.308 75.6923 183.063 75.6923 186.462V201.846C75.6923 205.245 72.9371 208 69.5385 208H54.1538C50.7552 208 48 205.245 48 201.846V186.462ZM69.5385 189.795C69.5385 187.954 68.0461 186.462 66.2051 186.462H57.4872C55.6462 186.462 54.1538 187.954 54.1538 189.795V198.513C54.1538 200.354 55.6462 201.846 57.4872 201.846H66.2051C68.0461 201.846 69.5385 200.354 69.5385 198.513V189.795Z" fill="white"/>
<path fill-rule="evenodd" clip-rule="evenodd" d="M180.308 54.1538C180.308 50.7552 183.063 48 186.462 48H201.846C205.245 48 208 50.7552 208 54.1538V69.5385C208 72.9371 205.245 75.6923 201.846 75.6923H186.462C183.063 75.6923 180.308 72.9371 180.308 69.5385V54.1538ZM201.846 57.4872C201.846 55.6462 200.354 54.1538 198.513 54.1538H189.795C187.954 54.1538 186.462 55.6462 186.462 57.4872V66.2051C186.462 68.0461 187.954 69.5385 189.795 69.5385H198.513C200.354 69.5385 201.846 68.0461 201.846 66.2051V57.4872Z" fill="white"/>
<path fill-rule="evenodd" clip-rule="evenodd" d="M180.308 186.462C180.308 183.063 183.063 180.308 186.462 180.308H201.846C205.245 180.308 208 183.063 208 186.462V201.846C208 205.245 205.245 208 201.846 208H186.462C183.063 208 180.308 205.245 180.308 201.846V186.462ZM201.846 189.795C201.846 187.954 200.354 186.462 198.513 186.462H189.795C187.954 186.462 186.462 187.954 186.462 189.795V198.513C186.462 200.354 187.954 201.846 189.795 201.846H198.513C200.354 201.846 201.846 200.354 201.846 198.513V189.795Z" fill="white"/>
</g>
<path d="M87.6413 150.712C88.2576 144.594 90.9694 138.877 95.3175 134.529L141.513 88.3332C146.72 83.1262 155.162 83.1262 160.369 88.3332L167.622 95.5855C172.829 100.793 172.829 109.235 167.622 114.442L121.426 160.637C117.078 164.985 111.361 167.697 105.243 168.313L93.7888 169.467C89.5938 169.89 86.065 166.361 86.4875 162.166L87.6413 150.712Z" fill="white"/>
</svg>
