<svg width="48" height="48" viewBox="0 0 48 48" fill="none" xmlns="http://www.w3.org/2000/svg">
<path opacity="0.88" fill-rule="evenodd" clip-rule="evenodd" d="M7.91249 37.5C7.91249 36.423 8.78554 35.55 9.86249 35.55H38.625C39.7019 35.55 40.575 36.423 40.575 37.5C40.575 38.577 39.7019 39.45 38.625 39.45H9.86249C8.78554 39.45 7.91249 38.577 7.91249 37.5Z" fill="white"/>
<path fill-rule="evenodd" clip-rule="evenodd" d="M24 20.925C19.9614 20.925 16.6875 24.1989 16.6875 28.2375C16.6875 32.2761 19.9614 35.55 24 35.55C25.0769 35.55 25.95 36.423 25.95 37.5C25.95 38.577 25.0769 39.45 24 39.45C17.8075 39.45 12.7875 34.43 12.7875 28.2375C12.7875 22.045 17.8075 17.025 24 17.025C30.1925 17.025 35.2125 22.045 35.2125 28.2375C35.2125 29.3145 34.3395 30.1875 33.2625 30.1875C32.1855 30.1875 31.3125 29.3145 31.3125 28.2375C31.3125 24.1989 28.0386 20.925 24 20.925Z" fill="white"/>
<path opacity="0.72" fill-rule="evenodd" clip-rule="evenodd" d="M24 12.15C15.3844 12.15 8.4 19.1344 8.4 27.75C8.4 28.827 7.52696 29.7 6.45 29.7C5.37304 29.7 4.5 28.827 4.5 27.75C4.5 16.9804 13.2304 8.25 24 8.25C34.7696 8.25 43.5 16.9804 43.5 27.75C43.5 28.827 42.627 29.7 41.55 29.7C40.473 29.7 39.6 28.827 39.6 27.75C39.6 19.1344 32.6156 12.15 24 12.15Z" fill="white"/>
</svg>
