<svg width="16" height="16" viewBox="0 0 16 16" fill="none" xmlns="http://www.w3.org/2000/svg">
<rect width="16" height="16" fill="white"/>
<path opacity="0.88" fill-rule="evenodd" clip-rule="evenodd" d="M3.875 11.5C3.875 11.2239 4.09886 11 4.375 11H11.75C12.0261 11 12.25 11.2239 12.25 11.5C12.25 11.7761 12.0261 12 11.75 12H4.375C4.09886 12 3.875 11.7761 3.875 11.5Z" fill="#003FFF"/>
<path fill-rule="evenodd" clip-rule="evenodd" d="M8 7.25C6.96447 7.25 6.125 8.08947 6.125 9.125C6.125 10.1605 6.96447 11 8 11C8.27614 11 8.5 11.2239 8.5 11.5C8.5 11.7761 8.27614 12 8 12C6.41218 12 5.125 10.7128 5.125 9.125C5.125 7.53718 6.41218 6.25 8 6.25C9.58782 6.25 10.875 7.53718 10.875 9.125C10.875 9.40114 10.6511 9.625 10.375 9.625C10.0989 9.625 9.875 9.40114 9.875 9.125C9.875 8.08947 9.03553 7.25 8 7.25Z" fill="#003FFF"/>
<path opacity="0.72" fill-rule="evenodd" clip-rule="evenodd" d="M8 5C5.79086 5 4 6.79086 4 9C4 9.27614 3.77614 9.5 3.5 9.5C3.22386 9.5 3 9.27614 3 9C3 6.23858 5.23858 4 8 4C10.7614 4 13 6.23858 13 9C13 9.27614 12.7761 9.5 12.5 9.5C12.2239 9.5 12 9.27614 12 9C12 6.79086 10.2091 5 8 5Z" fill="#003FFF"/>
</svg>
