<svg width="32" height="32" viewBox="0 0 32 32" fill="none" xmlns="http://www.w3.org/2000/svg">
<g clip-path="url(#clip0_2_424)">
<path d="M32 0H0V32H32V0Z" fill="#130485"/>
<path d="M16 28C9.37258 28 4 22.6274 4 16C4 9.37258 9.37258 4 16 4C19.9559 4 23.4646 5.91415 25.6507 8.86676C25.7408 8.98846 25.6525 9.15821 25.5011 9.15821H16C12.261 9.15821 9.22985 12.1893 9.22985 15.9284C9.22985 19.6674 12.261 22.6985 16 22.6985C16.2238 22.6985 16.4452 22.689 16.6634 22.6679C16.6981 22.6646 16.7332 22.6706 16.7644 22.686C17.9256 23.2612 18.6866 24.2243 18.6866 25.3134C18.6866 26.4184 17.9034 27.3927 16.7137 27.9647C16.6919 27.9751 16.6682 27.9811 16.6441 27.9824C16.4308 27.9937 16.2161 28 16 28Z" fill="#40ED99"/>
<path d="M19.9761 15.9642C19.9761 18.1403 18.212 19.9045 16.0358 19.9045C13.8597 19.9045 12.0955 18.1403 12.0955 15.9642C12.0955 13.788 13.8597 12.0239 16.0358 12.0239C18.212 12.0239 19.9761 13.788 19.9761 15.9642Z" fill="#40ED99"/>
<path d="M21.8937 12.0239C21.7416 12.0239 21.6516 12.1964 21.7326 12.3251C22.1295 12.9551 22.4253 13.6551 22.5975 14.4024C22.6316 14.5504 22.8169 14.6083 22.9243 14.5009L25.0804 12.3439C25.1984 12.2258 25.1148 12.0239 24.9478 12.0239H21.8937Z" fill="#40ED99"/>
<path d="M28 16C28 16.35 27.985 16.6964 27.9557 17.0388C27.8704 18.0337 27.6637 18.9938 27.3505 19.9045C26.3591 22.787 24.3003 25.1735 21.6465 26.5914C21.5023 26.6684 21.3371 26.5315 21.3707 26.3715C21.443 26.028 21.4806 25.6745 21.4806 25.3134C21.4806 23.9386 20.9326 22.6705 20.0096 21.6542C19.9317 21.5684 19.9447 21.4329 20.0376 21.3638C20.585 20.9564 21.0685 20.4681 21.471 19.917C21.4771 19.9087 21.4838 19.9009 21.4911 19.8936L27.5306 13.9443C27.6372 13.8393 27.817 13.8954 27.8412 14.0431C27.9457 14.6799 28 15.3336 28 16Z" fill="#40ED99"/>
</g>
<defs>
<clipPath id="clip0_2_424">
<rect width="32" height="32" fill="white"/>
</clipPath>
</defs>
</svg>
