<svg width="1460" height="903" viewBox="0 0 1460 903" fill="none" xmlns="http://www.w3.org/2000/svg">
<g clip-path="url(#clip0_2932_45920)">
<g opacity="0.04">
<path opacity="0.72" fill-rule="evenodd" clip-rule="evenodd" d="M12 6.6087C7.9179 6.6087 4.6087 9.9179 4.6087 14C4.6087 14.7204 4.02472 15.3043 3.30435 15.3043C2.58398 15.3043 2 14.7204 2 14C2 8.47715 6.47715 4 12 4C17.5228 4 22 8.47715 22 14C22 14.7204 21.416 15.3043 20.6957 15.3043C19.9753 15.3043 19.3913 14.7204 19.3913 14C19.3913 9.9179 16.0821 6.6087 12 6.6087Z" fill="white"/>
<path opacity="0.72" fill-rule="evenodd" clip-rule="evenodd" d="M191.5 6.6087C187.418 6.6087 184.109 9.9179 184.109 14C184.109 14.7204 183.525 15.3043 182.804 15.3043C182.084 15.3043 181.5 14.7204 181.5 14C181.5 8.47715 185.977 4 191.5 4C197.023 4 201.5 8.47715 201.5 14C201.5 14.7204 200.916 15.3043 200.196 15.3043C199.475 15.3043 198.891 14.7204 198.891 14C198.891 9.9179 195.582 6.6087 191.5 6.6087Z" fill="white"/>
<path opacity="0.72" fill-rule="evenodd" clip-rule="evenodd" d="M371 6.6087C366.918 6.6087 363.609 9.9179 363.609 14C363.609 14.7204 363.025 15.3043 362.304 15.3043C361.584 15.3043 361 14.7204 361 14C361 8.47715 365.477 4 371 4C376.523 4 381 8.47715 381 14C381 14.7204 380.416 15.3043 379.696 15.3043C378.975 15.3043 378.391 14.7204 378.391 14C378.391 9.9179 375.082 6.6087 371 6.6087Z" fill="white"/>
<path opacity="0.72" fill-rule="evenodd" clip-rule="evenodd" d="M550.5 6.6087C546.418 6.6087 543.109 9.9179 543.109 14C543.109 14.7204 542.525 15.3043 541.804 15.3043C541.084 15.3043 540.5 14.7204 540.5 14C540.5 8.47715 544.977 4 550.5 4C556.023 4 560.5 8.47715 560.5 14C560.5 14.7204 559.916 15.3043 559.196 15.3043C558.475 15.3043 557.891 14.7204 557.891 14C557.891 9.9179 554.582 6.6087 550.5 6.6087Z" fill="white"/>
<path opacity="0.72" fill-rule="evenodd" clip-rule="evenodd" d="M730 6.6087C725.918 6.6087 722.609 9.9179 722.609 14C722.609 14.7204 722.025 15.3043 721.304 15.3043C720.584 15.3043 720 14.7204 720 14C720 8.47715 724.477 4 730 4C735.523 4 740 8.47715 740 14C740 14.7204 739.416 15.3043 738.696 15.3043C737.975 15.3043 737.391 14.7204 737.391 14C737.391 9.9179 734.082 6.6087 730 6.6087Z" fill="white"/>
<path opacity="0.72" fill-rule="evenodd" clip-rule="evenodd" d="M909.5 6.6087C905.418 6.6087 902.109 9.9179 902.109 14C902.109 14.7204 901.525 15.3043 900.804 15.3043C900.084 15.3043 899.5 14.7204 899.5 14C899.5 8.47715 903.977 4 909.5 4C915.023 4 919.5 8.47715 919.5 14C919.5 14.7204 918.916 15.3043 918.196 15.3043C917.475 15.3043 916.891 14.7204 916.891 14C916.891 9.9179 913.582 6.6087 909.5 6.6087Z" fill="white"/>
<path opacity="0.72" fill-rule="evenodd" clip-rule="evenodd" d="M1089 6.6087C1084.92 6.6087 1081.61 9.9179 1081.61 14C1081.61 14.7204 1081.02 15.3043 1080.3 15.3043C1079.58 15.3043 1079 14.7204 1079 14C1079 8.47715 1083.48 4 1089 4C1094.52 4 1099 8.47715 1099 14C1099 14.7204 1098.42 15.3043 1097.7 15.3043C1096.98 15.3043 1096.39 14.7204 1096.39 14C1096.39 9.9179 1093.08 6.6087 1089 6.6087Z" fill="white"/>
<path opacity="0.72" fill-rule="evenodd" clip-rule="evenodd" d="M1268.5 6.6087C1264.42 6.6087 1261.11 9.9179 1261.11 14C1261.11 14.7204 1260.52 15.3043 1259.8 15.3043C1259.08 15.3043 1258.5 14.7204 1258.5 14C1258.5 8.47715 1262.98 4 1268.5 4C1274.02 4 1278.5 8.47715 1278.5 14C1278.5 14.7204 1277.92 15.3043 1277.2 15.3043C1276.48 15.3043 1275.89 14.7204 1275.89 14C1275.89 9.9179 1272.58 6.6087 1268.5 6.6087Z" fill="white"/>
<path opacity="0.72" fill-rule="evenodd" clip-rule="evenodd" d="M1448 6.6087C1443.92 6.6087 1440.61 9.9179 1440.61 14C1440.61 14.7204 1440.02 15.3043 1439.3 15.3043C1438.58 15.3043 1438 14.7204 1438 14C1438 8.47715 1442.48 4 1448 4C1453.52 4 1458 8.47715 1458 14C1458 14.7204 1457.42 15.3043 1456.7 15.3043C1455.98 15.3043 1455.39 14.7204 1455.39 14C1455.39 9.9179 1452.08 6.6087 1448 6.6087Z" fill="white"/>
<path fill-rule="evenodd" clip-rule="evenodd" d="M89.9998 136.528C88.319 136.528 86.9564 137.891 86.9564 139.572C86.9564 141.252 88.319 142.615 89.9998 142.615C90.7202 142.615 91.3042 143.199 91.3042 143.919C91.3042 144.64 90.7202 145.224 89.9998 145.224C86.8782 145.224 84.3477 142.693 84.3477 139.572C84.3477 136.45 86.8782 133.919 89.9998 133.919C93.1214 133.919 95.652 136.45 95.652 139.572C95.652 140.292 95.068 140.876 94.3477 140.876C93.6273 140.876 93.0433 140.292 93.0433 139.572C93.0433 137.891 91.6807 136.528 89.9998 136.528Z" fill="white"/>
<path fill-rule="evenodd" clip-rule="evenodd" d="M272.857 136.528C271.176 136.528 269.813 137.891 269.813 139.572C269.813 141.252 271.176 142.615 272.857 142.615C273.577 142.615 274.161 143.199 274.161 143.919C274.161 144.64 273.577 145.224 272.857 145.224C269.735 145.224 267.205 142.693 267.205 139.572C267.205 136.45 269.735 133.919 272.857 133.919C275.978 133.919 278.509 136.45 278.509 139.572C278.509 140.292 277.925 140.876 277.205 140.876C276.484 140.876 275.9 140.292 275.9 139.572C275.9 137.891 274.538 136.528 272.857 136.528Z" fill="white"/>
<path fill-rule="evenodd" clip-rule="evenodd" d="M455.714 136.528C454.033 136.528 452.671 137.891 452.671 139.572C452.671 141.252 454.033 142.615 455.714 142.615C456.435 142.615 457.019 143.199 457.019 143.919C457.019 144.64 456.435 145.224 455.714 145.224C452.593 145.224 450.062 142.693 450.062 139.572C450.062 136.45 452.593 133.919 455.714 133.919C458.836 133.919 461.366 136.45 461.366 139.572C461.366 140.292 460.782 140.876 460.062 140.876C459.342 140.876 458.758 140.292 458.758 139.572C458.758 137.891 457.395 136.528 455.714 136.528Z" fill="white"/>
<path fill-rule="evenodd" clip-rule="evenodd" d="M638.571 136.528C636.89 136.528 635.528 137.891 635.528 139.572C635.528 141.252 636.89 142.615 638.571 142.615C639.291 142.615 639.875 143.199 639.875 143.919C639.875 144.64 639.291 145.224 638.571 145.224C635.45 145.224 632.919 142.693 632.919 139.572C632.919 136.45 635.45 133.919 638.571 133.919C641.693 133.919 644.223 136.45 644.223 139.572C644.223 140.292 643.639 140.876 642.919 140.876C642.199 140.876 641.615 140.292 641.615 139.572C641.615 137.891 640.252 136.528 638.571 136.528Z" fill="white"/>
<path fill-rule="evenodd" clip-rule="evenodd" d="M821.429 136.528C819.748 136.528 818.385 137.891 818.385 139.572C818.385 141.252 819.748 142.615 821.429 142.615C822.149 142.615 822.733 143.199 822.733 143.919C822.733 144.64 822.149 145.224 821.429 145.224C818.307 145.224 815.776 142.693 815.776 139.572C815.776 136.45 818.307 133.919 821.429 133.919C824.55 133.919 827.081 136.45 827.081 139.572C827.081 140.292 826.497 140.876 825.776 140.876C825.056 140.876 824.472 140.292 824.472 139.572C824.472 137.891 823.109 136.528 821.429 136.528Z" fill="white"/>
<path fill-rule="evenodd" clip-rule="evenodd" d="M1004.29 136.528C1002.6 136.528 1001.24 137.891 1001.24 139.572C1001.24 141.252 1002.6 142.615 1004.29 142.615C1005.01 142.615 1005.59 143.199 1005.59 143.919C1005.59 144.64 1005.01 145.224 1004.29 145.224C1001.16 145.224 998.633 142.693 998.633 139.572C998.633 136.45 1001.16 133.919 1004.29 133.919C1007.41 133.919 1009.94 136.45 1009.94 139.572C1009.94 140.292 1009.35 140.876 1008.63 140.876C1007.91 140.876 1007.33 140.292 1007.33 139.572C1007.33 137.891 1005.97 136.528 1004.29 136.528Z" fill="white"/>
<path fill-rule="evenodd" clip-rule="evenodd" d="M1187.14 136.528C1185.46 136.528 1184.1 137.891 1184.1 139.572C1184.1 141.252 1185.46 142.615 1187.14 142.615C1187.86 142.615 1188.45 143.199 1188.45 143.919C1188.45 144.64 1187.86 145.224 1187.14 145.224C1184.02 145.224 1181.49 142.693 1181.49 139.572C1181.49 136.45 1184.02 133.919 1187.14 133.919C1190.26 133.919 1192.8 136.45 1192.8 139.572C1192.8 140.292 1192.21 140.876 1191.49 140.876C1190.77 140.876 1190.19 140.292 1190.19 139.572C1190.19 137.891 1188.82 136.528 1187.14 136.528Z" fill="white"/>
<path fill-rule="evenodd" clip-rule="evenodd" d="M1370 136.528C1368.32 136.528 1366.96 137.891 1366.96 139.572C1366.96 141.252 1368.32 142.615 1370 142.615C1370.72 142.615 1371.3 143.199 1371.3 143.919C1371.3 144.64 1370.72 145.224 1370 145.224C1366.88 145.224 1364.35 142.693 1364.35 139.572C1364.35 136.45 1366.88 133.919 1370 133.919C1373.12 133.919 1375.65 136.45 1375.65 139.572C1375.65 140.292 1375.07 140.876 1374.35 140.876C1373.63 140.876 1373.04 140.292 1373.04 139.572C1373.04 137.891 1371.68 136.528 1370 136.528Z" fill="white"/>
<path opacity="0.88" fill-rule="evenodd" clip-rule="evenodd" d="M2.86963 269.491C2.86963 268.77 3.45361 268.186 4.17398 268.186H19.8262C20.5465 268.186 21.1305 268.77 21.1305 269.491C21.1305 270.211 20.5465 270.795 19.8262 270.795H4.17398C3.45361 270.795 2.86963 270.211 2.86963 269.491Z" fill="white"/>
<path opacity="0.88" fill-rule="evenodd" clip-rule="evenodd" d="M182.37 269.491C182.37 268.77 182.954 268.186 183.674 268.186H199.326C200.047 268.186 200.63 268.77 200.63 269.491C200.63 270.211 200.047 270.795 199.326 270.795H183.674C182.954 270.795 182.37 270.211 182.37 269.491Z" fill="white"/>
<path opacity="0.88" fill-rule="evenodd" clip-rule="evenodd" d="M361.87 269.491C361.87 268.77 362.454 268.186 363.174 268.186H378.826C379.547 268.186 380.13 268.77 380.13 269.491C380.13 270.211 379.547 270.795 378.826 270.795H363.174C362.454 270.795 361.87 270.211 361.87 269.491Z" fill="white"/>
<path opacity="0.88" fill-rule="evenodd" clip-rule="evenodd" d="M541.37 269.491C541.37 268.77 541.954 268.186 542.674 268.186H558.326C559.047 268.186 559.63 268.77 559.63 269.491C559.63 270.211 559.047 270.795 558.326 270.795H542.674C541.954 270.795 541.37 270.211 541.37 269.491Z" fill="white"/>
<path opacity="0.88" fill-rule="evenodd" clip-rule="evenodd" d="M720.87 269.491C720.87 268.77 721.454 268.186 722.174 268.186H737.826C738.547 268.186 739.13 268.77 739.13 269.491C739.13 270.211 738.547 270.795 737.826 270.795H722.174C721.454 270.795 720.87 270.211 720.87 269.491Z" fill="white"/>
<path opacity="0.88" fill-rule="evenodd" clip-rule="evenodd" d="M900.37 269.491C900.37 268.77 900.954 268.186 901.674 268.186H917.326C918.047 268.186 918.63 268.77 918.63 269.491C918.63 270.211 918.047 270.795 917.326 270.795H901.674C900.954 270.795 900.37 270.211 900.37 269.491Z" fill="white"/>
<path opacity="0.88" fill-rule="evenodd" clip-rule="evenodd" d="M1079.87 269.491C1079.87 268.77 1080.45 268.186 1081.17 268.186H1096.83C1097.55 268.186 1098.13 268.77 1098.13 269.491C1098.13 270.211 1097.55 270.795 1096.83 270.795H1081.17C1080.45 270.795 1079.87 270.211 1079.87 269.491Z" fill="white"/>
<path opacity="0.88" fill-rule="evenodd" clip-rule="evenodd" d="M1259.37 269.491C1259.37 268.77 1259.95 268.186 1260.67 268.186H1276.33C1277.05 268.186 1277.63 268.77 1277.63 269.491C1277.63 270.211 1277.05 270.795 1276.33 270.795H1260.67C1259.95 270.795 1259.37 270.211 1259.37 269.491Z" fill="white"/>
<path opacity="0.88" fill-rule="evenodd" clip-rule="evenodd" d="M1438.87 269.491C1438.87 268.77 1439.45 268.186 1440.17 268.186H1455.83C1456.55 268.186 1457.13 268.77 1457.13 269.491C1457.13 270.211 1456.55 270.795 1455.83 270.795H1440.17C1439.45 270.795 1438.87 270.211 1438.87 269.491Z" fill="white"/>
<path opacity="0.72" fill-rule="evenodd" clip-rule="evenodd" d="M90 383.323C85.9179 383.323 82.6087 386.632 82.6087 390.714C82.6087 391.435 82.0247 392.019 81.3043 392.019C80.584 392.019 80 391.435 80 390.714C80 385.192 84.4772 380.714 90 380.714C95.5228 380.714 100 385.192 100 390.714C100 391.435 99.416 392.019 98.6957 392.019C97.9753 392.019 97.3913 391.435 97.3913 390.714C97.3913 386.632 94.0821 383.323 90 383.323Z" fill="white"/>
<path opacity="0.72" fill-rule="evenodd" clip-rule="evenodd" d="M272.857 383.323C268.775 383.323 265.466 386.632 265.466 390.714C265.466 391.435 264.882 392.019 264.161 392.019C263.441 392.019 262.857 391.435 262.857 390.714C262.857 385.192 267.334 380.714 272.857 380.714C278.38 380.714 282.857 385.192 282.857 390.714C282.857 391.435 282.273 392.019 281.553 392.019C280.832 392.019 280.248 391.435 280.248 390.714C280.248 386.632 276.939 383.323 272.857 383.323Z" fill="white"/>
<path opacity="0.72" fill-rule="evenodd" clip-rule="evenodd" d="M455.714 383.323C451.632 383.323 448.323 386.632 448.323 390.714C448.323 391.435 447.739 392.019 447.019 392.019C446.298 392.019 445.714 391.435 445.714 390.714C445.714 385.192 450.192 380.714 455.714 380.714C461.237 380.714 465.714 385.192 465.714 390.714C465.714 391.435 465.13 392.019 464.41 392.019C463.69 392.019 463.106 391.435 463.106 390.714C463.106 386.632 459.796 383.323 455.714 383.323Z" fill="white"/>
<path opacity="0.72" fill-rule="evenodd" clip-rule="evenodd" d="M638.571 383.323C634.489 383.323 631.18 386.632 631.18 390.714C631.18 391.435 630.596 392.019 629.876 392.019C629.155 392.019 628.571 391.435 628.571 390.714C628.571 385.192 633.048 380.714 638.571 380.714C644.094 380.714 648.571 385.192 648.571 390.714C648.571 391.435 647.987 392.019 647.267 392.019C646.547 392.019 645.963 391.435 645.963 390.714C645.963 386.632 642.653 383.323 638.571 383.323Z" fill="white"/>
<path opacity="0.72" fill-rule="evenodd" clip-rule="evenodd" d="M821.429 383.323C817.347 383.323 814.037 386.632 814.037 390.714C814.037 391.435 813.453 392.019 812.733 392.019C812.013 392.019 811.429 391.435 811.429 390.714C811.429 385.192 815.906 380.714 821.429 380.714C826.952 380.714 831.429 385.192 831.429 390.714C831.429 391.435 830.845 392.019 830.124 392.019C829.404 392.019 828.82 391.435 828.82 390.714C828.82 386.632 825.511 383.323 821.429 383.323Z" fill="white"/>
<path opacity="0.72" fill-rule="evenodd" clip-rule="evenodd" d="M1004.29 383.323C1000.2 383.323 996.894 386.632 996.894 390.714C996.894 391.435 996.31 392.019 995.59 392.019C994.87 392.019 994.286 391.435 994.286 390.714C994.286 385.192 998.763 380.714 1004.29 380.714C1009.81 380.714 1014.29 385.192 1014.29 390.714C1014.29 391.435 1013.7 392.019 1012.98 392.019C1012.26 392.019 1011.68 391.435 1011.68 390.714C1011.68 386.632 1008.37 383.323 1004.29 383.323Z" fill="white"/>
<path opacity="0.72" fill-rule="evenodd" clip-rule="evenodd" d="M1187.14 383.323C1183.06 383.323 1179.75 386.632 1179.75 390.714C1179.75 391.435 1179.17 392.019 1178.45 392.019C1177.73 392.019 1177.14 391.435 1177.14 390.714C1177.14 385.192 1181.62 380.714 1187.14 380.714C1192.67 380.714 1197.14 385.192 1197.14 390.714C1197.14 391.435 1196.56 392.019 1195.84 392.019C1195.12 392.019 1194.53 391.435 1194.53 390.714C1194.53 386.632 1191.23 383.323 1187.14 383.323Z" fill="white"/>
<path opacity="0.72" fill-rule="evenodd" clip-rule="evenodd" d="M1370 383.323C1365.92 383.323 1362.61 386.632 1362.61 390.714C1362.61 391.435 1362.02 392.019 1361.3 392.019C1360.58 392.019 1360 391.435 1360 390.714C1360 385.192 1364.48 380.714 1370 380.714C1375.52 380.714 1380 385.192 1380 390.714C1380 391.435 1379.42 392.019 1378.7 392.019C1377.98 392.019 1377.39 391.435 1377.39 390.714C1377.39 386.632 1374.08 383.323 1370 383.323Z" fill="white"/>
<path fill-rule="evenodd" clip-rule="evenodd" d="M11.9998 513.242C10.319 513.242 8.95635 514.605 8.95635 516.286C8.95635 517.967 10.319 519.329 11.9998 519.329C12.7202 519.329 13.3042 519.913 13.3042 520.634C13.3042 521.354 12.7202 521.938 11.9998 521.938C8.87822 521.938 6.34766 519.407 6.34766 516.286C6.34766 513.164 8.87822 510.634 11.9998 510.634C15.1214 510.634 17.652 513.164 17.652 516.286C17.652 517.006 17.068 517.59 16.3477 517.59C15.6273 517.59 15.0433 517.006 15.0433 516.286C15.0433 514.605 13.6807 513.242 11.9998 513.242Z" fill="white"/>
<path fill-rule="evenodd" clip-rule="evenodd" d="M191.5 513.242C189.819 513.242 188.456 514.605 188.456 516.286C188.456 517.967 189.819 519.329 191.5 519.329C192.22 519.329 192.804 519.913 192.804 520.634C192.804 521.354 192.22 521.938 191.5 521.938C188.378 521.938 185.848 519.407 185.848 516.286C185.848 513.164 188.378 510.634 191.5 510.634C194.621 510.634 197.152 513.164 197.152 516.286C197.152 517.006 196.568 517.59 195.848 517.59C195.127 517.59 194.543 517.006 194.543 516.286C194.543 514.605 193.181 513.242 191.5 513.242Z" fill="white"/>
<path fill-rule="evenodd" clip-rule="evenodd" d="M371 513.242C369.319 513.242 367.956 514.605 367.956 516.286C367.956 517.967 369.319 519.329 371 519.329C371.72 519.329 372.304 519.913 372.304 520.634C372.304 521.354 371.72 521.938 371 521.938C367.878 521.938 365.348 519.407 365.348 516.286C365.348 513.164 367.878 510.634 371 510.634C374.121 510.634 376.652 513.164 376.652 516.286C376.652 517.006 376.068 517.59 375.348 517.59C374.627 517.59 374.043 517.006 374.043 516.286C374.043 514.605 372.681 513.242 371 513.242Z" fill="white"/>
<path fill-rule="evenodd" clip-rule="evenodd" d="M550.5 513.242C548.819 513.242 547.456 514.605 547.456 516.286C547.456 517.967 548.819 519.329 550.5 519.329C551.22 519.329 551.804 519.913 551.804 520.634C551.804 521.354 551.22 521.938 550.5 521.938C547.378 521.938 544.848 519.407 544.848 516.286C544.848 513.164 547.378 510.634 550.5 510.634C553.621 510.634 556.152 513.164 556.152 516.286C556.152 517.006 555.568 517.59 554.848 517.59C554.127 517.59 553.543 517.006 553.543 516.286C553.543 514.605 552.181 513.242 550.5 513.242Z" fill="white"/>
<path fill-rule="evenodd" clip-rule="evenodd" d="M730 513.242C728.319 513.242 726.956 514.605 726.956 516.286C726.956 517.967 728.319 519.329 730 519.329C730.72 519.329 731.304 519.913 731.304 520.634C731.304 521.354 730.72 521.938 730 521.938C726.878 521.938 724.348 519.407 724.348 516.286C724.348 513.164 726.878 510.634 730 510.634C733.121 510.634 735.652 513.164 735.652 516.286C735.652 517.006 735.068 517.59 734.348 517.59C733.627 517.59 733.043 517.006 733.043 516.286C733.043 514.605 731.681 513.242 730 513.242Z" fill="white"/>
<path fill-rule="evenodd" clip-rule="evenodd" d="M909.5 513.242C907.819 513.242 906.456 514.605 906.456 516.286C906.456 517.967 907.819 519.329 909.5 519.329C910.22 519.329 910.804 519.913 910.804 520.634C910.804 521.354 910.22 521.938 909.5 521.938C906.378 521.938 903.848 519.407 903.848 516.286C903.848 513.164 906.378 510.634 909.5 510.634C912.621 510.634 915.152 513.164 915.152 516.286C915.152 517.006 914.568 517.59 913.848 517.59C913.127 517.59 912.543 517.006 912.543 516.286C912.543 514.605 911.181 513.242 909.5 513.242Z" fill="white"/>
<path fill-rule="evenodd" clip-rule="evenodd" d="M1089 513.242C1087.32 513.242 1085.96 514.605 1085.96 516.286C1085.96 517.967 1087.32 519.329 1089 519.329C1089.72 519.329 1090.3 519.913 1090.3 520.634C1090.3 521.354 1089.72 521.938 1089 521.938C1085.88 521.938 1083.35 519.407 1083.35 516.286C1083.35 513.164 1085.88 510.634 1089 510.634C1092.12 510.634 1094.65 513.164 1094.65 516.286C1094.65 517.006 1094.07 517.59 1093.35 517.59C1092.63 517.59 1092.04 517.006 1092.04 516.286C1092.04 514.605 1090.68 513.242 1089 513.242Z" fill="white"/>
<path fill-rule="evenodd" clip-rule="evenodd" d="M1268.5 513.242C1266.82 513.242 1265.46 514.605 1265.46 516.286C1265.46 517.967 1266.82 519.329 1268.5 519.329C1269.22 519.329 1269.8 519.913 1269.8 520.634C1269.8 521.354 1269.22 521.938 1268.5 521.938C1265.38 521.938 1262.85 519.407 1262.85 516.286C1262.85 513.164 1265.38 510.634 1268.5 510.634C1271.62 510.634 1274.15 513.164 1274.15 516.286C1274.15 517.006 1273.57 517.59 1272.85 517.59C1272.13 517.59 1271.54 517.006 1271.54 516.286C1271.54 514.605 1270.18 513.242 1268.5 513.242Z" fill="white"/>
<path fill-rule="evenodd" clip-rule="evenodd" d="M1448 513.242C1446.32 513.242 1444.96 514.605 1444.96 516.286C1444.96 517.967 1446.32 519.329 1448 519.329C1448.72 519.329 1449.3 519.913 1449.3 520.634C1449.3 521.354 1448.72 521.938 1448 521.938C1444.88 521.938 1442.35 519.407 1442.35 516.286C1442.35 513.164 1444.88 510.634 1448 510.634C1451.12 510.634 1453.65 513.164 1453.65 516.286C1453.65 517.006 1453.07 517.59 1452.35 517.59C1451.63 517.59 1451.04 517.006 1451.04 516.286C1451.04 514.605 1449.68 513.242 1448 513.242Z" fill="white"/>
<path opacity="0.88" fill-rule="evenodd" clip-rule="evenodd" d="M80.8696 646.205C80.8696 645.485 81.4536 644.901 82.174 644.901H97.8262C98.5465 644.901 99.1305 645.485 99.1305 646.205C99.1305 646.925 98.5465 647.509 97.8262 647.509H82.174C81.4536 647.509 80.8696 646.925 80.8696 646.205Z" fill="white"/>
<path opacity="0.88" fill-rule="evenodd" clip-rule="evenodd" d="M263.727 646.205C263.727 645.485 264.311 644.901 265.031 644.901H280.683C281.403 644.901 281.987 645.485 281.987 646.205C281.987 646.925 281.403 647.509 280.683 647.509H265.031C264.311 647.509 263.727 646.925 263.727 646.205Z" fill="white"/>
<path opacity="0.88" fill-rule="evenodd" clip-rule="evenodd" d="M446.584 646.205C446.584 645.485 447.168 644.901 447.888 644.901H463.541C464.261 644.901 464.845 645.485 464.845 646.205C464.845 646.925 464.261 647.509 463.541 647.509H447.888C447.168 647.509 446.584 646.925 446.584 646.205Z" fill="white"/>
<path opacity="0.88" fill-rule="evenodd" clip-rule="evenodd" d="M629.441 646.205C629.441 645.485 630.025 644.901 630.745 644.901H646.397C647.118 644.901 647.702 645.485 647.702 646.205C647.702 646.925 647.118 647.509 646.397 647.509H630.745C630.025 647.509 629.441 646.925 629.441 646.205Z" fill="white"/>
<path opacity="0.88" fill-rule="evenodd" clip-rule="evenodd" d="M812.298 646.205C812.298 645.485 812.882 644.901 813.603 644.901H829.255C829.975 644.901 830.559 645.485 830.559 646.205C830.559 646.925 829.975 647.509 829.255 647.509H813.603C812.882 647.509 812.298 646.925 812.298 646.205Z" fill="white"/>
<path opacity="0.88" fill-rule="evenodd" clip-rule="evenodd" d="M995.155 646.205C995.155 645.485 995.739 644.901 996.46 644.901H1012.11C1012.83 644.901 1013.42 645.485 1013.42 646.205C1013.42 646.925 1012.83 647.509 1012.11 647.509H996.46C995.739 647.509 995.155 646.925 995.155 646.205Z" fill="white"/>
<path opacity="0.88" fill-rule="evenodd" clip-rule="evenodd" d="M1178.01 646.205C1178.01 645.485 1178.6 644.901 1179.32 644.901H1194.97C1195.69 644.901 1196.27 645.485 1196.27 646.205C1196.27 646.925 1195.69 647.509 1194.97 647.509H1179.32C1178.6 647.509 1178.01 646.925 1178.01 646.205Z" fill="white"/>
<path opacity="0.88" fill-rule="evenodd" clip-rule="evenodd" d="M1360.87 646.205C1360.87 645.485 1361.45 644.901 1362.17 644.901H1377.83C1378.55 644.901 1379.13 645.485 1379.13 646.205C1379.13 646.925 1378.55 647.509 1377.83 647.509H1362.17C1361.45 647.509 1360.87 646.925 1360.87 646.205Z" fill="white"/>
<path opacity="0.72" fill-rule="evenodd" clip-rule="evenodd" d="M12 760.037C7.9179 760.037 4.6087 763.346 4.6087 767.428C4.6087 768.149 4.02472 768.733 3.30435 768.733C2.58398 768.733 2 768.149 2 767.428C2 761.906 6.47715 757.428 12 757.428C17.5228 757.428 22 761.906 22 767.428C22 768.149 21.416 768.733 20.6957 768.733C19.9753 768.733 19.3913 768.149 19.3913 767.428C19.3913 763.346 16.0821 760.037 12 760.037Z" fill="white"/>
<path opacity="0.72" fill-rule="evenodd" clip-rule="evenodd" d="M191.5 760.037C187.418 760.037 184.109 763.346 184.109 767.428C184.109 768.149 183.525 768.733 182.804 768.733C182.084 768.733 181.5 768.149 181.5 767.428C181.5 761.906 185.977 757.428 191.5 757.428C197.023 757.428 201.5 761.906 201.5 767.428C201.5 768.149 200.916 768.733 200.196 768.733C199.475 768.733 198.891 768.149 198.891 767.428C198.891 763.346 195.582 760.037 191.5 760.037Z" fill="white"/>
<path opacity="0.72" fill-rule="evenodd" clip-rule="evenodd" d="M371 760.037C366.918 760.037 363.609 763.346 363.609 767.428C363.609 768.149 363.025 768.733 362.304 768.733C361.584 768.733 361 768.149 361 767.428C361 761.906 365.477 757.428 371 757.428C376.523 757.428 381 761.906 381 767.428C381 768.149 380.416 768.733 379.696 768.733C378.975 768.733 378.391 768.149 378.391 767.428C378.391 763.346 375.082 760.037 371 760.037Z" fill="white"/>
<path opacity="0.72" fill-rule="evenodd" clip-rule="evenodd" d="M550.5 760.037C546.418 760.037 543.109 763.346 543.109 767.428C543.109 768.149 542.525 768.733 541.804 768.733C541.084 768.733 540.5 768.149 540.5 767.428C540.5 761.906 544.977 757.428 550.5 757.428C556.023 757.428 560.5 761.906 560.5 767.428C560.5 768.149 559.916 768.733 559.196 768.733C558.475 768.733 557.891 768.149 557.891 767.428C557.891 763.346 554.582 760.037 550.5 760.037Z" fill="white"/>
<path opacity="0.72" fill-rule="evenodd" clip-rule="evenodd" d="M730 760.037C725.918 760.037 722.609 763.346 722.609 767.428C722.609 768.149 722.025 768.733 721.304 768.733C720.584 768.733 720 768.149 720 767.428C720 761.906 724.477 757.428 730 757.428C735.523 757.428 740 761.906 740 767.428C740 768.149 739.416 768.733 738.696 768.733C737.975 768.733 737.391 768.149 737.391 767.428C737.391 763.346 734.082 760.037 730 760.037Z" fill="white"/>
<path opacity="0.72" fill-rule="evenodd" clip-rule="evenodd" d="M909.5 760.037C905.418 760.037 902.109 763.346 902.109 767.428C902.109 768.149 901.525 768.733 900.804 768.733C900.084 768.733 899.5 768.149 899.5 767.428C899.5 761.906 903.977 757.428 909.5 757.428C915.023 757.428 919.5 761.906 919.5 767.428C919.5 768.149 918.916 768.733 918.196 768.733C917.475 768.733 916.891 768.149 916.891 767.428C916.891 763.346 913.582 760.037 909.5 760.037Z" fill="white"/>
<path opacity="0.72" fill-rule="evenodd" clip-rule="evenodd" d="M1089 760.037C1084.92 760.037 1081.61 763.346 1081.61 767.428C1081.61 768.149 1081.02 768.733 1080.3 768.733C1079.58 768.733 1079 768.149 1079 767.428C1079 761.906 1083.48 757.428 1089 757.428C1094.52 757.428 1099 761.906 1099 767.428C1099 768.149 1098.42 768.733 1097.7 768.733C1096.98 768.733 1096.39 768.149 1096.39 767.428C1096.39 763.346 1093.08 760.037 1089 760.037Z" fill="white"/>
<path opacity="0.72" fill-rule="evenodd" clip-rule="evenodd" d="M1268.5 760.037C1264.42 760.037 1261.11 763.346 1261.11 767.428C1261.11 768.149 1260.52 768.733 1259.8 768.733C1259.08 768.733 1258.5 768.149 1258.5 767.428C1258.5 761.906 1262.98 757.428 1268.5 757.428C1274.02 757.428 1278.5 761.906 1278.5 767.428C1278.5 768.149 1277.92 768.733 1277.2 768.733C1276.48 768.733 1275.89 768.149 1275.89 767.428C1275.89 763.346 1272.58 760.037 1268.5 760.037Z" fill="white"/>
<path opacity="0.72" fill-rule="evenodd" clip-rule="evenodd" d="M1448 760.037C1443.92 760.037 1440.61 763.346 1440.61 767.428C1440.61 768.149 1440.02 768.733 1439.3 768.733C1438.58 768.733 1438 768.149 1438 767.428C1438 761.906 1442.48 757.428 1448 757.428C1453.52 757.428 1458 761.906 1458 767.428C1458 768.149 1457.42 768.733 1456.7 768.733C1455.98 768.733 1455.39 768.149 1455.39 767.428C1455.39 763.346 1452.08 760.037 1448 760.037Z" fill="white"/>
<path fill-rule="evenodd" clip-rule="evenodd" d="M89.9998 889.957C88.319 889.957 86.9564 891.319 86.9564 893C86.9564 894.681 88.319 896.044 89.9998 896.044C90.7202 896.044 91.3042 896.628 91.3042 897.348C91.3042 898.068 90.7202 898.652 89.9998 898.652C86.8782 898.652 84.3477 896.122 84.3477 893C84.3477 889.878 86.8782 887.348 89.9998 887.348C93.1214 887.348 95.652 889.878 95.652 893C95.652 893.72 95.068 894.304 94.3477 894.304C93.6273 894.304 93.0433 893.72 93.0433 893C93.0433 891.319 91.6807 889.957 89.9998 889.957Z" fill="white"/>
<path fill-rule="evenodd" clip-rule="evenodd" d="M272.857 889.957C271.176 889.957 269.813 891.319 269.813 893C269.813 894.681 271.176 896.044 272.857 896.044C273.577 896.044 274.161 896.628 274.161 897.348C274.161 898.068 273.577 898.652 272.857 898.652C269.735 898.652 267.205 896.122 267.205 893C267.205 889.878 269.735 887.348 272.857 887.348C275.978 887.348 278.509 889.878 278.509 893C278.509 893.72 277.925 894.304 277.205 894.304C276.484 894.304 275.9 893.72 275.9 893C275.9 891.319 274.538 889.957 272.857 889.957Z" fill="white"/>
<path fill-rule="evenodd" clip-rule="evenodd" d="M455.714 889.957C454.033 889.957 452.671 891.319 452.671 893C452.671 894.681 454.033 896.044 455.714 896.044C456.435 896.044 457.019 896.628 457.019 897.348C457.019 898.068 456.435 898.652 455.714 898.652C452.593 898.652 450.062 896.122 450.062 893C450.062 889.878 452.593 887.348 455.714 887.348C458.836 887.348 461.366 889.878 461.366 893C461.366 893.72 460.782 894.304 460.062 894.304C459.342 894.304 458.758 893.72 458.758 893C458.758 891.319 457.395 889.957 455.714 889.957Z" fill="white"/>
<path fill-rule="evenodd" clip-rule="evenodd" d="M638.571 889.957C636.89 889.957 635.528 891.319 635.528 893C635.528 894.681 636.89 896.044 638.571 896.044C639.291 896.044 639.875 896.628 639.875 897.348C639.875 898.068 639.291 898.652 638.571 898.652C635.45 898.652 632.919 896.122 632.919 893C632.919 889.878 635.45 887.348 638.571 887.348C641.693 887.348 644.223 889.878 644.223 893C644.223 893.72 643.639 894.304 642.919 894.304C642.199 894.304 641.615 893.72 641.615 893C641.615 891.319 640.252 889.957 638.571 889.957Z" fill="white"/>
<path fill-rule="evenodd" clip-rule="evenodd" d="M821.429 889.957C819.748 889.957 818.385 891.319 818.385 893C818.385 894.681 819.748 896.044 821.429 896.044C822.149 896.044 822.733 896.628 822.733 897.348C822.733 898.068 822.149 898.652 821.429 898.652C818.307 898.652 815.776 896.122 815.776 893C815.776 889.878 818.307 887.348 821.429 887.348C824.55 887.348 827.081 889.878 827.081 893C827.081 893.72 826.497 894.304 825.776 894.304C825.056 894.304 824.472 893.72 824.472 893C824.472 891.319 823.109 889.957 821.429 889.957Z" fill="white"/>
<path fill-rule="evenodd" clip-rule="evenodd" d="M1004.29 889.957C1002.6 889.957 1001.24 891.319 1001.24 893C1001.24 894.681 1002.6 896.044 1004.29 896.044C1005.01 896.044 1005.59 896.628 1005.59 897.348C1005.59 898.068 1005.01 898.652 1004.29 898.652C1001.16 898.652 998.633 896.122 998.633 893C998.633 889.878 1001.16 887.348 1004.29 887.348C1007.41 887.348 1009.94 889.878 1009.94 893C1009.94 893.72 1009.35 894.304 1008.63 894.304C1007.91 894.304 1007.33 893.72 1007.33 893C1007.33 891.319 1005.97 889.957 1004.29 889.957Z" fill="white"/>
<path fill-rule="evenodd" clip-rule="evenodd" d="M1187.14 889.957C1185.46 889.957 1184.1 891.319 1184.1 893C1184.1 894.681 1185.46 896.044 1187.14 896.044C1187.86 896.044 1188.45 896.628 1188.45 897.348C1188.45 898.068 1187.86 898.652 1187.14 898.652C1184.02 898.652 1181.49 896.122 1181.49 893C1181.49 889.878 1184.02 887.348 1187.14 887.348C1190.26 887.348 1192.8 889.878 1192.8 893C1192.8 893.72 1192.21 894.304 1191.49 894.304C1190.77 894.304 1190.19 893.72 1190.19 893C1190.19 891.319 1188.82 889.957 1187.14 889.957Z" fill="white"/>
<path fill-rule="evenodd" clip-rule="evenodd" d="M1370 889.957C1368.32 889.957 1366.96 891.319 1366.96 893C1366.96 894.681 1368.32 896.044 1370 896.044C1370.72 896.044 1371.3 896.628 1371.3 897.348C1371.3 898.068 1370.72 898.652 1370 898.652C1366.88 898.652 1364.35 896.122 1364.35 893C1364.35 889.878 1366.88 887.348 1370 887.348C1373.12 887.348 1375.65 889.878 1375.65 893C1375.65 893.72 1375.07 894.304 1374.35 894.304C1373.63 894.304 1373.04 893.72 1373.04 893C1373.04 891.319 1371.68 889.957 1370 889.957Z" fill="white"/>
</g>
</g>
<defs>
<clipPath id="clip0_2932_45920">
<rect width="1460" height="903" fill="white"/>
</clipPath>
</defs>
</svg>
