<svg width="24" height="24" viewBox="0 0 24 24" fill="none" xmlns="http://www.w3.org/2000/svg">
<path d="M12.2847 12C12.2847 10.9392 12.7061 9.92171 13.4562 9.17157C14.2064 8.42143 15.2238 8 16.2847 8C17.3455 8 18.3629 8.42143 19.1131 9.17157C19.8632 9.92171 20.2847 10.9392 20.2847 12C20.2847 13.0609 19.8632 14.0783 19.1131 14.8285C18.3629 15.5786 17.3455 16 16.2847 16C15.2238 16 14.2064 15.5786 13.4562 14.8285C12.7061 14.0783 12.2847 13.0609 12.2847 12Z" fill="white"/>
<path d="M4.28564 20C4.28564 18.9392 4.70707 17.9217 5.45722 17.1716C6.20736 16.4215 7.22477 16 8.28564 16H12.2856V20C12.2856 21.0609 11.8642 22.0783 11.1141 22.8284C10.3639 23.5786 9.3465 24 8.28564 24C7.22477 24 6.20736 23.5786 5.45722 22.8284C4.70707 22.0783 4.28564 21.0609 4.28564 20Z" fill="white"/>
<path d="M12.2847 0V7.99999H16.2847C17.3455 7.99999 18.3629 7.57856 19.1131 6.82842C19.8632 6.07827 20.2847 5.06086 20.2847 3.99999C20.2847 2.93913 19.8632 1.92172 19.1131 1.17157C18.3629 0.421427 17.3455 0 16.2847 0H12.2847Z" fill="white"/>
<path d="M4.28564 3.99999C4.28564 5.06086 4.70707 6.07827 5.45722 6.82842C6.20736 7.57856 7.22477 7.99999 8.28564 7.99999H12.2856V0H8.28564C7.22477 0 6.20736 0.421427 5.45722 1.17157C4.70707 1.92172 4.28564 2.93913 4.28564 3.99999Z" fill="white"/>
<path d="M4.28564 12C4.28564 13.0609 4.70707 14.0783 5.45722 14.8285C6.20736 15.5786 7.22477 16 8.28564 16H12.2856V8H8.28564C7.22477 8 6.20736 8.42143 5.45722 9.17157C4.70707 9.92171 4.28564 10.9392 4.28564 12Z" fill="white"/>
</svg>
