<svg width="130" height="34" viewBox="0 0 130 34" fill="none" xmlns="http://www.w3.org/2000/svg">
<path d="M12.0456 31.2002C9.55512 31.2002 7.39387 30.0659 5.56187 27.7973C5.51262 27.7363 5.52787 27.6439 5.59362 27.6032L7.9005 26.1758C7.95275 26.1435 8.01987 26.1552 8.06 26.2027C9.19437 27.5421 10.5229 28.2118 12.0456 28.2118C12.748 28.2118 13.4185 28.0679 14.057 27.7801C14.6956 27.4924 15.249 27.094 15.7173 26.5848C16.1855 26.0757 16.5474 25.489 16.8027 24.825C17.0795 24.1609 17.2178 23.4636 17.2178 22.7331V21.9362C15.7705 23.6186 14.0357 24.4598 12.0137 24.4598C10.9281 24.4598 9.88525 24.2273 8.88487 23.7625C7.90575 23.2755 7.05437 22.6224 6.33075 21.8034C5.607 20.9844 5.03237 20.0546 4.60662 19.0142C4.20225 17.9738 4 16.9003 4 15.7935C4 14.6645 4.20225 13.6019 4.60662 12.6059C5.03237 11.5876 5.61763 10.6911 6.36263 9.91632C7.10763 9.1637 7.959 8.57709 8.91675 8.15651C9.89587 7.73592 10.9281 7.52563 12.0137 7.52563C13.1844 7.52563 14.2272 7.79126 15.1425 8.32252C16.0577 8.85379 16.7495 9.45147 17.2178 10.1155V7.95447C17.2178 7.88267 17.2738 7.82447 17.3428 7.82447H19.9662C20.0352 7.82447 20.0912 7.88267 20.0912 7.95447V22.7331C20.0912 23.8841 19.8784 24.9689 19.4527 25.9872C19.0482 27.0053 18.4736 27.913 17.7286 28.7099C17.005 29.4845 16.1429 30.0933 15.1425 30.5361C14.1635 30.9788 13.1311 31.2002 12.0456 31.2002ZM12.0137 10.5472C11.3112 10.5472 10.6409 10.6911 10.0023 10.9789C9.36375 11.2445 8.81037 11.6319 8.34212 12.141C7.87387 12.6501 7.50137 13.2478 7.22462 13.9341C6.948 14.5981 6.80962 15.2954 6.80962 16.0259C6.80962 16.7564 6.948 17.4647 7.22462 18.1509C7.50137 18.8151 7.87387 19.3906 8.34212 19.8775C8.81037 20.3645 9.36375 20.7519 10.0023 21.0397C10.6409 21.3274 11.3112 21.4713 12.0137 21.4713C12.7161 21.4713 13.3866 21.3274 14.0251 21.0397C14.6636 20.7519 15.217 20.3645 15.6852 19.8775C16.1536 19.3906 16.5154 18.8151 16.7709 18.1509C17.0475 17.4647 17.1859 16.7564 17.1859 16.0259C17.1859 15.2954 17.0475 14.5981 16.7709 13.9341C16.5154 13.2478 16.1536 12.6501 15.6852 12.141C15.217 11.6319 14.6636 11.2445 14.0251 10.9789C13.3866 10.6911 12.7161 10.5472 12.0137 10.5472Z" fill="white"/>
<path d="M29.1749 10.6787C29.1396 10.7003 29.0964 10.7025 29.059 10.6853C28.5721 10.4604 28.1344 10.348 27.7457 10.348C26.8944 10.348 26.192 10.6579 25.6385 11.2777C25.0426 11.9418 24.7446 12.7055 24.7446 13.5688V23.9976C24.7446 24.0695 24.6886 24.1276 24.6196 24.1276H22.1239C22.0549 24.1276 21.9989 24.0695 21.9989 23.9976V13.5688C21.9989 12.3734 22.2862 11.2777 22.8609 10.2816C23.4569 9.28545 24.2657 8.51069 25.2874 7.9573C26.0536 7.58097 26.8731 7.39282 27.7457 7.39282C28.4481 7.39282 29.1186 7.52564 29.7571 7.79127C30.3532 8.03927 30.9772 8.43198 31.6291 8.9694C31.6972 9.02556 31.6892 9.13494 31.6144 9.18088L29.1749 10.6787Z" fill="white"/>
<path d="M43.5674 24.1274C43.4984 24.1274 43.4424 24.0693 43.4424 23.9974V21.604C42.7613 22.423 41.9738 23.076 41.0798 23.5629C40.1858 24.0499 39.2386 24.2934 38.2383 24.2934C37.1315 24.2934 36.0885 24.0832 35.1094 23.6626C34.1516 23.242 33.3003 22.6444 32.5553 21.8696C31.8103 21.117 31.225 20.2316 30.7993 19.2133C30.3949 18.1729 30.1926 17.0882 30.1926 15.9592C30.1926 14.8303 30.3949 13.7566 30.7993 12.7384C31.225 11.698 31.8103 10.7905 32.5553 10.0157C33.3003 9.24094 34.1516 8.64326 35.1094 8.22267C36.0885 7.80208 37.1315 7.5918 38.2383 7.5918C39.2599 7.5918 40.2178 7.81316 41.1118 8.25588C42.0269 8.6986 42.8039 9.3184 43.4424 10.1153V8.05383C43.4424 7.98204 43.4984 7.92383 43.5674 7.92383H46.1908C46.2599 7.92383 46.3158 7.98204 46.3158 8.05383V23.9974C46.3158 24.0693 46.2599 24.1274 46.1908 24.1274H43.5674ZM38.2383 10.547C37.5359 10.547 36.8548 10.6908 36.1949 10.9786C35.5564 11.2443 35.003 11.6206 34.5348 12.1076C34.0665 12.5945 33.694 13.1811 33.4173 13.8674C33.1619 14.5314 33.0341 15.2288 33.0341 15.9592C33.0341 16.6897 33.1619 17.387 33.4173 18.0511C33.694 18.7152 34.0665 19.2907 34.5348 19.7777C35.003 20.2647 35.5564 20.6521 36.1949 20.9398C36.8548 21.2055 37.5359 21.3382 38.2383 21.3382C38.9406 21.3382 39.6111 21.2055 40.2496 20.9398C40.8883 20.6521 41.4416 20.2647 41.9099 19.7777C42.3781 19.2907 42.74 18.7152 42.9954 18.0511C43.2721 17.387 43.4104 16.6897 43.4104 15.9592C43.4104 15.2288 43.2721 14.5314 42.9954 13.8674C42.74 13.1811 42.3781 12.5945 41.9099 12.1076C41.4416 11.6206 40.8883 11.2443 40.2496 10.9786C39.6111 10.6908 38.9406 10.547 38.2383 10.547Z" fill="white"/>
<path d="M54.8316 31.2002C53.6184 31.2002 52.4903 30.8792 51.4473 30.2372C50.458 29.6156 49.5884 28.724 48.8385 27.5628C48.7985 27.5007 48.8178 27.4166 48.88 27.3793L51.1521 26.0161C51.21 25.9813 51.284 26.0003 51.321 26.0584C51.7542 26.7374 52.2646 27.256 52.8521 27.6141C53.4694 28.0126 54.1291 28.2118 54.8316 28.2118C55.9596 28.2118 56.9388 27.7801 57.7689 26.9168C58.152 26.5183 58.4394 26.0535 58.6309 25.5223C58.8437 24.991 58.9501 24.4265 58.9501 23.8289V22.6667C58.4606 23.198 57.8434 23.6296 57.0984 23.9616C56.3534 24.2715 55.5979 24.4265 54.8316 24.4265C53.895 24.4265 53.0118 24.2494 52.1816 23.8952C51.3515 23.519 50.6173 22.9987 49.9786 22.3347C49.3189 21.6706 48.808 20.9069 48.4461 20.0436C48.0844 19.1581 47.9034 18.2284 47.9034 17.2544V7.65563C47.9034 7.58384 47.9594 7.52563 48.0284 7.52563H50.588C50.657 7.52563 50.713 7.58384 50.713 7.65563V17.0552C50.713 17.8299 50.8939 18.5605 51.2558 19.2467C51.6389 19.9107 52.1391 20.442 52.7564 20.8405C53.3949 21.2389 54.0866 21.4382 54.8316 21.4382C55.5765 21.4382 56.2683 21.25 56.9069 20.8737C57.5454 20.4753 58.0456 19.944 58.4074 19.2799C58.7693 18.5937 58.9501 17.8521 58.9501 17.0552V7.65563C58.9501 7.58384 59.0061 7.52563 59.0751 7.52563H61.6348C61.7038 7.52563 61.7598 7.58384 61.7598 7.65563V23.8289C61.7598 24.825 61.5789 25.7768 61.217 26.6843C60.8764 27.592 60.3869 28.3779 59.7484 29.0419C59.0885 29.7282 58.3329 30.2593 57.4815 30.6357C56.6514 31.012 55.7681 31.2002 54.8316 31.2002Z" fill="white"/>
<path d="M71.1031 31.2002C68.6126 31.2002 66.4514 30.0659 64.6194 27.7973C64.5701 27.7363 64.5854 27.6439 64.6511 27.6032L66.958 26.1758C67.0102 26.1435 67.0774 26.1552 67.1175 26.2027C68.2519 27.5421 69.5804 28.2118 71.1031 28.2118C71.8055 28.2118 72.476 28.0679 73.1145 27.7801C73.7531 27.4924 74.3065 27.094 74.7747 26.5848C75.243 26.0757 75.6049 25.489 75.8602 24.825C76.137 24.1609 76.2752 23.4636 76.2752 22.7331V21.9362C74.828 23.6186 73.0932 24.4598 71.0712 24.4598C69.9857 24.4598 68.9427 24.2273 67.9424 23.7625C66.9632 23.2755 66.1119 22.6224 65.3882 21.8034C64.6645 20.9844 64.0899 20.0546 63.6641 19.0142C63.2597 17.9738 63.0575 16.9003 63.0575 15.7935C63.0575 14.6645 63.2597 13.6019 63.6641 12.6059C64.0899 11.5876 64.6751 10.6911 65.4201 9.91632C66.1651 9.1637 67.0165 8.57709 67.9742 8.15651C68.9534 7.73592 69.9857 7.52563 71.0712 7.52563C72.2419 7.52563 73.2849 7.79126 74.2001 8.32252C75.1152 8.85379 75.807 9.45147 76.2752 10.1155V7.95447C76.2752 7.88267 76.3312 7.82447 76.4002 7.82447H79.0237C79.0927 7.82447 79.1487 7.88267 79.1487 7.95447V22.7331C79.1487 23.8841 78.9359 24.9689 78.5102 25.9872C78.1057 27.0053 77.5311 27.913 76.7861 28.7099C76.0625 29.4845 75.2005 30.0933 74.2001 30.5361C73.221 30.9788 72.1886 31.2002 71.1031 31.2002ZM71.0712 10.5472C70.3689 10.5472 69.6984 10.6911 69.0597 10.9789C68.4212 11.2445 67.8679 11.6319 67.3996 12.141C66.9314 12.6501 66.5589 13.2478 66.2821 13.9341C66.0055 14.5981 65.8671 15.2954 65.8671 16.0259C65.8671 16.7564 66.0055 17.4647 66.2821 18.1509C66.5589 18.8151 66.9314 19.3906 67.3996 19.8775C67.8679 20.3645 68.4212 20.7519 69.0597 21.0397C69.6984 21.3274 70.3689 21.4713 71.0712 21.4713C71.7736 21.4713 72.4441 21.3274 73.0826 21.0397C73.7211 20.7519 74.2746 20.3645 74.7429 19.8775C75.2111 19.3906 75.5729 18.8151 75.8284 18.1509C76.105 17.4647 76.2434 16.7564 76.2434 16.0259C76.2434 15.2954 76.105 14.5981 75.8284 13.9341C75.5729 13.2478 75.2111 12.6501 74.7429 12.141C74.2746 11.6319 73.7211 11.2445 73.0826 10.9789C72.4441 10.6911 71.7736 10.5472 71.0712 10.5472Z" fill="white"/>
<path d="M88.2324 10.6787C88.1971 10.7003 88.1539 10.7025 88.1165 10.6853C87.6296 10.4604 87.1919 10.348 86.8032 10.348C85.9519 10.348 85.2495 10.6579 84.6961 11.2777C84.1001 11.9418 83.8021 12.7055 83.8021 13.5688V23.9976C83.8021 24.0695 83.7461 24.1276 83.6771 24.1276H81.1814C81.1124 24.1276 81.0564 24.0695 81.0564 23.9976V13.5688C81.0564 12.3734 81.3437 11.2777 81.9184 10.2816C82.5144 9.28545 83.3232 8.51069 84.3449 7.9573C85.1111 7.58097 85.9306 7.39282 86.8032 7.39282C87.5056 7.39282 88.1761 7.52564 88.8146 7.79127C89.4112 8.03927 90.035 8.43198 90.6862 8.9694C90.755 9.02556 90.7462 9.13494 90.6725 9.18088L88.2324 10.6787Z" fill="white"/>
<path d="M92.94 5.13486C92.535 5.13486 92.1838 4.99097 91.8863 4.7032C91.61 4.3933 91.4713 4.02805 91.4713 3.60746C91.4713 3.18689 91.61 2.8327 91.8863 2.54493C92.1838 2.23503 92.535 2.08008 92.94 2.08008C93.345 2.08008 93.685 2.23503 93.9613 2.54493C94.26 2.8327 94.4088 3.18689 94.4088 3.60746C94.4088 4.02805 94.26 4.3933 93.9613 4.7032C93.685 4.99097 93.345 5.13486 92.94 5.13486ZM91.6313 24.1276V7.65556C91.6313 7.58376 91.6875 7.52556 91.7563 7.52556H94.1875C94.2563 7.52556 94.3125 7.58376 94.3125 7.65556V24.1276H91.6313Z" fill="white"/>
<path d="M108.553 24.1276C108.484 24.1276 108.428 24.0694 108.428 23.9976V21.5708C107.748 22.4121 106.939 23.0761 106.001 23.5631C105.086 24.0501 104.129 24.2936 103.129 24.2936C102 24.2936 100.946 24.0834 99.9675 23.6628C98.9888 23.22 98.1375 22.6002 97.4138 21.8033C96.6688 21.0064 96.0825 20.0989 95.6575 19.0806C95.2525 18.0402 95.0513 16.9444 95.0513 15.7934C95.0513 14.6422 95.2525 13.5576 95.6575 12.5394C96.0825 11.499 96.6688 10.5803 97.4138 9.78344C98.1375 8.98654 98.9888 8.37778 99.9675 7.95721C100.946 7.51448 102 7.29312 103.129 7.29312C104.235 7.29312 105.235 7.52556 106.129 7.99041C107.045 8.45526 107.811 9.0972 108.428 9.91624V2.21008C108.428 2.13828 108.484 2.08008 108.553 2.08008H111.113C111.181 2.08008 111.238 2.13828 111.238 2.21008V23.9976C111.238 24.0694 111.181 24.1276 111.113 24.1276H108.553ZM103.129 10.3147C102.426 10.3147 101.755 10.4586 101.116 10.7463C100.479 11.012 99.925 11.3994 99.4563 11.9085C98.9888 12.4176 98.6163 13.0153 98.3388 13.7016C98.0625 14.3656 97.9238 15.0629 97.9238 15.7934C97.9238 17.2764 98.435 18.5715 99.4563 19.6783C99.925 20.1874 100.479 20.5858 101.116 20.8737C101.755 21.1613 102.426 21.3053 103.129 21.3053C103.83 21.3053 104.501 21.1613 105.14 20.8737C105.8 20.5858 106.364 20.1874 106.831 19.6783C107.854 18.5715 108.364 17.2764 108.364 15.7934C108.364 15.0629 108.226 14.3656 107.949 13.7016C107.673 13.0153 107.3 12.4176 106.831 11.9085C106.364 11.3994 105.8 11.012 105.14 10.7463C104.501 10.4586 103.83 10.3147 103.129 10.3147Z" fill="white"/>
<path d="M121.295 12.4728C121.234 12.4728 121.181 12.4268 121.169 12.3645C121.099 12.006 120.968 11.6658 120.774 11.3439C120.369 10.6134 119.571 10.2481 118.379 10.2481C117.74 10.2481 117.251 10.3256 116.91 10.4806C116.464 10.6576 116.123 10.9122 115.889 11.2443C115.676 11.5763 115.57 11.9415 115.57 12.34C115.57 12.827 115.74 13.2697 116.08 13.6681C116.443 14.0888 117.028 14.3101 117.836 14.3323C119.263 14.3986 120.411 14.5758 121.285 14.8635C122.179 15.1513 122.86 15.6493 123.328 16.3577C123.818 17.0661 124.063 18.0621 124.063 19.346C124.063 20.6521 123.584 21.781 122.625 22.7329C122.158 23.1978 121.604 23.574 120.965 23.8618C120.348 24.1496 119.699 24.2934 119.018 24.2934H118.539C116.836 24.2934 115.463 23.7843 114.42 22.766C113.598 21.9747 113.073 20.8732 112.846 19.462C112.834 19.3836 112.893 19.3128 112.969 19.3128H115.564C115.623 19.3128 115.674 19.3561 115.688 19.4159C115.8 19.9002 116.005 20.2975 116.304 20.6078C116.794 21.0948 117.475 21.3382 118.348 21.3382C118.581 21.3382 118.751 21.3272 118.858 21.3051C119.603 21.2608 120.189 21.0506 120.614 20.6742C121.04 20.2758 121.253 19.7888 121.253 19.2133C121.253 18.4164 121.019 17.8961 120.55 17.6526C120.081 17.4091 119.178 17.2874 117.836 17.2874C116.155 17.2874 114.868 16.734 113.974 15.6272C113.25 14.786 112.888 13.7235 112.888 12.4396C112.888 12.1518 112.899 11.9305 112.92 11.7755C113.09 10.3367 113.654 9.24094 114.611 8.48831C115.591 7.71355 116.879 7.32617 118.475 7.32617C119.645 7.32617 120.668 7.5918 121.54 8.12306C122.158 8.52151 122.689 9.07492 123.136 9.78328C123.555 10.4793 123.829 11.3463 123.96 12.3843C123.964 12.4173 123.948 12.4496 123.919 12.4645C123.908 12.47 123.896 12.4728 123.885 12.4728H121.295Z" fill="white"/>
</svg>
