<svg width="1442" height="906" viewBox="0 0 1442 906" fill="none" xmlns="http://www.w3.org/2000/svg">
<path opacity="0.04" d="M54.3333 905.444V1.00031M107.667 905.444V1.00031M161 905.444V1.00031M214.334 905.444V1.00031M267.667 905.444V1.00031M321 905.444V1.00031M374.334 905.444V1.00031M427.667 905.444V1.00031M481.001 905.444V1.00031M534.334 905.444V1.00031M587.667 905.444V1.00031M641.001 905.444V1.00031M694.334 905.444V1.00031M747.668 905.444V1.00031M801.001 905.444V1.00031M854.334 905.444V1.00031M907.668 905.444V1.00031M961.001 905.444V1.00031M1014.33 905.444V1.00031M1067.67 905.444V1.00031M1121 905.444V1.00031M1174.33 905.444V1.00031M1227.67 905.444V1.00031M1281 905.444V1.00031M1334.34 905.444V1.00031M1387.67 905.444V1.00031M1441 852.111H1M1441 798.778H1M1441 745.445H1M1441 692.111H1M1441 638.778H1M1441 585.445H1M1441 532.111H1M1441 478.778H1M1441 425.445H1M1441 372.111H1M1441 318.778H1M1441 265.445H1M1441 212.111H1M1441 158.778H1M1441 105.445H1M1441 52.1117H1M1441 905.444V1.00008L1 1V905.444L1441 905.444Z" stroke="url(#paint0_linear_527_303)"/>
<defs>
<linearGradient id="paint0_linear_527_303" x1="721" y1="1" x2="721" y2="905.444" gradientUnits="userSpaceOnUse">
<stop offset="0.114583" stop-color="white" stop-opacity="0"/>
<stop offset="0.598958" stop-color="white"/>
<stop offset="1" stop-color="white" stop-opacity="0.16"/>
</linearGradient>
</defs>
</svg>
