<svg width="50" height="20" viewBox="0 0 50 20" fill="none" xmlns="http://www.w3.org/2000/svg">
<path d="M37.5477 15.1865L34.2755 11.0433L33.9441 14.9355C33.8935 15.5315 32.2392 15.5332 32.2902 14.9355L33.2791 3.31612C33.3315 2.70014 34.9791 2.76113 34.9331 3.31612L34.3298 10.4073L37.8501 6.34073C38.212 5.9224 40.1187 6.03174 39.5464 6.67139L35.9988 10.6359L38.863 14.1502C39.403 14.8122 38.7374 15.4548 38.1237 15.4548C38.0135 15.4578 37.9041 15.4351 37.8041 15.3885C37.7042 15.3419 37.6164 15.2728 37.5477 15.1865ZM29.1342 14.9355L29.8486 6.54339C29.9016 5.91974 31.5255 5.8814 31.4692 6.54339L30.7549 14.9355C30.7302 15.2262 30.3072 15.3742 29.8996 15.3742C29.4969 15.3745 29.1109 15.2298 29.1342 14.9355ZM20.5111 12.0506L21.2547 3.31746C21.3037 2.74147 22.957 2.7508 22.9087 3.31746L22.5977 6.97005C23.2574 6.41362 24.0972 6.11655 24.96 6.1344C27.5016 6.1344 28.2689 8.37435 28.0836 10.5486C27.8709 13.0506 26.3783 15.3518 23.6837 15.3668H23.6647C23.2337 15.3773 22.8053 15.2975 22.407 15.1323C22.0088 14.9672 21.6495 14.7205 21.3524 14.4081C21.0554 14.0956 20.827 13.7245 20.6821 13.3184C20.5372 12.9124 20.4789 12.4805 20.5111 12.0506ZM24.4697 7.72803C23.9368 7.77076 23.4353 7.99704 23.0506 8.36826C22.666 8.73948 22.422 9.23265 22.3604 9.76366L22.1694 12.0062C22.157 12.2323 22.1892 12.4585 22.2643 12.6721C22.3394 12.8857 22.4559 13.0823 22.6071 13.2508C22.7582 13.4193 22.9411 13.5564 23.1453 13.6541C23.3495 13.7519 23.571 13.8084 23.797 13.8205C25.4276 13.8205 26.2853 12.0439 26.4183 10.6496C26.6126 8.61635 25.785 7.7267 24.5583 7.72637C24.529 7.72637 24.4993 7.72703 24.4697 7.72803ZM41.7266 15.0612C39.714 14.2802 39.246 12.2516 39.6204 10.2133C39.8983 8.70235 40.594 7.21004 42.144 6.51006C44.1233 5.61874 46.7585 6.15207 46.6625 8.60068C46.6139 9.83066 45.9999 10.6209 44.3293 11.1426L41.3453 12.0759C41.612 13.9759 44.2333 14.1605 45.4589 12.7526C45.9006 12.2352 46.8499 13.0549 46.3295 13.7389C45.9175 14.213 45.4119 14.5969 44.8445 14.8665C44.2771 15.136 43.6601 15.2855 43.0323 15.3055C42.5858 15.306 42.1431 15.2236 41.7266 15.0625V15.0612ZM41.1867 10.5766L44.0763 9.61C44.6219 9.42733 45.0819 9.22267 45.1486 8.72201C45.2536 7.93803 44.6352 7.48871 43.8573 7.48871C42.7466 7.48971 41.3106 8.40635 41.1867 10.5766ZM10.0046 12.6409C9.79313 12.4177 9.67611 12.1213 9.67803 11.8138C9.67996 11.5063 9.80068 11.2115 10.015 10.9909C10.1795 10.8219 10.3932 10.7092 10.6256 10.6689L11.0629 8.06569C11.0042 8.02801 10.9496 7.98434 10.8999 7.93536C10.8088 7.84559 10.7365 7.73846 10.6874 7.62029C10.6383 7.50212 10.6134 7.37531 10.6142 7.24735C10.6149 7.1194 10.6413 6.99289 10.6917 6.8753C10.7422 6.75771 10.8157 6.65143 10.9079 6.56272C11.0957 6.38113 11.347 6.2802 11.6082 6.28151C11.8694 6.28282 12.1197 6.38626 12.3056 6.56972C12.3968 6.65958 12.4691 6.7668 12.5182 6.88505C12.5673 7.0033 12.5922 7.13019 12.5914 7.25823C12.5907 7.38627 12.5643 7.51286 12.5138 7.63053C12.4634 7.7482 12.3898 7.85457 12.2976 7.94336C12.1479 8.08863 11.9561 8.1829 11.7496 8.21269L11.3409 10.7883C11.5235 10.8887 11.6754 11.0368 11.7803 11.2169L14.7505 10.5653C14.7786 10.3679 14.8722 10.1856 15.0161 10.0477C15.16 9.90973 15.3461 9.82404 15.5445 9.80432C15.7298 9.79358 15.9126 9.85149 16.0578 9.96699C16.2362 10.1187 16.3519 10.3312 16.3827 10.5634C16.4135 10.7956 16.3571 11.0309 16.2245 11.2239C16.1561 11.33 16.0647 11.4193 15.9571 11.4852C15.8495 11.5511 15.7284 11.5919 15.6028 11.6046C15.4553 11.6165 15.3073 11.5859 15.1766 11.5163C15.0459 11.4468 14.9378 11.3413 14.8652 11.2123L11.9336 11.9636C11.9028 12.2217 11.7877 12.4624 11.6059 12.6482C11.5019 12.7555 11.3773 12.8407 11.2396 12.8986C11.1018 12.9565 10.9538 12.9861 10.8044 12.9854C10.655 12.9847 10.5072 12.9538 10.37 12.8946C10.2328 12.8354 10.109 12.7491 10.006 12.6409H10.0046ZM29.7492 4.14111C29.7795 3.83449 29.9214 3.54967 30.1478 3.3407C30.3742 3.13173 30.6695 3.01315 30.9775 3.00746C31.1227 3.00499 31.2668 3.0334 31.4001 3.09082C31.5335 3.14824 31.6532 3.23335 31.7512 3.34051C31.8491 3.44767 31.9232 3.57444 31.9685 3.7124C32.0138 3.85037 32.0293 3.99639 32.0138 4.14077C31.9834 4.44742 31.8414 4.7322 31.6148 4.9411C31.3883 5.15001 31.093 5.26849 30.7849 5.27408C30.6398 5.27646 30.4958 5.24798 30.3625 5.19054C30.2293 5.1331 30.1097 5.04801 30.0118 4.94089C29.9139 4.83378 29.8399 4.70709 29.7946 4.56921C29.7493 4.43133 29.7339 4.28541 29.7492 4.14111Z" fill="white"/>
<path fill-rule="evenodd" clip-rule="evenodd" d="M5.47272 8.45406C2.86911 8.96505 1.25046 11.483 1.76078 13.839C2.05345 15.1916 2.84743 16.0166 4.10707 16.0319C5.41838 16.0476 6.9507 15.2653 7.71035 13.428C8.18934 12.2693 8.57698 9.49871 8.77698 8.02407L9.38199 3.54783L7.51968 3.5935C7.43304 3.59208 7.35009 3.55824 7.28718 3.49866C7.22427 3.43907 7.18599 3.35807 7.17988 3.27164C7.17377 3.18521 7.20028 3.09963 7.25418 3.03179C7.30808 2.96394 7.38544 2.91877 7.47102 2.90518L13.3469 2.00886C14.2499 1.8712 14.4882 3.3825 13.5412 3.41283L10.7353 3.50316L10.1353 8.21773C9.9226 9.7477 9.63528 12.473 9.08829 13.8866C7.97798 16.7532 5.90505 17.9865 3.99275 17.9999C1.8088 18.0165 0.0184928 16.4792 0.000159819 13.865C-0.0201731 10.989 1.90012 8.0734 5.48172 7.86174C5.83638 7.90307 5.85238 8.47539 5.47272 8.45406ZM15.8699 15.3953C20.5931 15.3953 21.2214 5.94878 16.5418 5.94878C14.0452 5.94878 12.6296 8.36873 12.4846 10.7587L14.1426 10.3947C14.3039 8.77372 15.1759 7.21409 16.6725 7.21409C19.6634 7.21409 19.2198 13.9776 16.2372 13.9779C15.0798 13.9779 14.4132 13.0333 14.1952 11.85L12.5879 12.262L12.5749 12.303C12.8939 14.0113 13.9649 15.3953 15.8699 15.3953Z" fill="white"/>
</svg>
