<svg width="1163" height="320" viewBox="0 0 1163 320" fill="none" xmlns="http://www.w3.org/2000/svg">
<path opacity="0.56" d="M153.803 244.863C164.399 250.697 175.496 254.954 186.484 257.47C178.222 266.273 165.26 271.535 147.541 267.763C145.548 267.339 144.278 265.392 144.761 263.412C146.314 257.054 149.414 250.592 153.816 244.876L153.803 244.863Z" fill="white"/>
<path opacity="0.88" d="M303.859 179.499C304.342 177.519 303.126 175.52 301.169 174.949C224.055 152.43 184.681 211.843 186.484 257.47C247.461 269.112 293.249 222.981 303.859 179.499Z" fill="white"/>
<path opacity="0.72" d="M58.3499 110.83C54.2923 110.361 50.6709 113.319 50.1468 117.37C35.9765 226.894 124.605 268.933 186.484 257.47C190.317 171.849 119.672 117.931 58.3499 110.83Z" fill="white"/>
<path d="M117.177 52.6481C115.373 51.683 113.121 52.3547 112.046 54.0956C46.8592 159.668 118.638 241.981 186.469 257.47C228.013 171.389 177.347 84.8356 117.177 52.6481Z" fill="white"/>
<path d="M244.674 78.7406C244.281 78.3842 243.654 78.4059 243.283 78.7848C219.319 103.236 228.289 118.025 243.648 136.871C244.018 137.325 244.71 137.359 245.126 136.948C266.427 115.925 267.675 99.5996 244.674 78.7406Z" fill="white"/>
<path opacity="0.8" d="M215.851 108.252C215.494 108.645 215.516 109.272 215.895 109.643C240.346 133.607 255.135 124.637 273.981 109.277C274.435 108.907 274.469 108.216 274.058 107.799C253.036 86.4989 236.71 85.2508 215.851 108.252Z" fill="white"/>
<g clip-path="url(#clip0_503_758)">
<path d="M396.636 83H368.636V237H396.636V83Z" fill="white"/>
<path d="M986.797 149V121H930.797V149H986.797Z" fill="white"/>
<path d="M972.427 83H944.427V237H972.427V83Z" fill="white"/>
<path d="M529.047 121C497.017 121 471.047 146.97 471.047 179C471.047 211.03 497.017 237 529.047 237C561.077 237 587.047 211.03 587.047 179C587.047 146.97 561.077 121 529.047 121ZM558.047 179C558.047 195.02 545.067 208 529.047 208C513.027 208 500.047 195.02 500.047 179C500.047 162.98 513.027 150 529.047 150C545.067 150 558.047 162.98 558.047 179Z" fill="white"/>
<path d="M499.047 83H471.047V237H499.047V83Z" fill="white"/>
<path d="M858.797 121C826.767 121 800.797 146.97 800.797 179C800.797 211.03 826.767 237 858.797 237C890.827 237 916.797 211.03 916.797 179C916.797 146.97 890.827 121 858.797 121ZM887.797 179C887.797 195.02 874.817 208 858.797 208C842.777 208 829.797 195.02 829.797 179C829.797 162.98 842.777 150 858.797 150C874.817 150 887.797 162.98 887.797 179Z" fill="white"/>
<path d="M916.797 121H888.797V237H916.797V121Z" fill="white"/>
<path d="M657.047 121C625.017 121 599.047 146.97 599.047 179C599.047 211.03 625.017 237 657.047 237C673.067 237 687.567 230.51 698.057 220.01L677.577 199.48C672.327 204.74 665.067 208 657.047 208C644.417 208 633.677 199.93 629.697 188.67H715.047V179C715.047 146.97 689.077 121 657.047 121ZM629.697 169.33C633.677 158.07 644.417 150 657.047 150C669.677 150 680.417 158.07 684.397 169.33H629.697Z" fill="white"/>
<path d="M1056.64 121C1024.61 121 998.636 146.97 998.636 179C998.636 211.03 1024.61 237 1056.64 237C1072.66 237 1087.16 230.51 1097.65 220.01L1077.17 199.48C1071.92 204.74 1064.66 208 1056.64 208C1044.01 208 1033.27 199.93 1029.29 188.67H1114.64V179C1114.64 146.97 1088.67 121 1056.64 121ZM1029.29 169.33C1033.27 158.07 1044.01 150 1056.64 150C1069.27 150 1080.01 158.07 1083.99 169.33H1029.29Z" fill="white"/>
<path d="M759.047 121H731.047V237H759.047V121Z" fill="white"/>
<path d="M788.797 121C756.907 121 731.047 146.86 731.047 178.75H759.047C759.047 162.56 772.607 149.44 788.797 149.44V121Z" fill="white"/>
<path d="M448.047 140H420.047V237H448.047V140Z" fill="white"/>
<path d="M434.047 121C444.54 121 453.047 112.493 453.047 102C453.047 91.5066 444.54 83 434.047 83C423.553 83 415.047 91.5066 415.047 102C415.047 112.493 423.553 121 434.047 121Z" fill="white"/>
</g>
<defs>
<clipPath id="clip0_503_758">
<rect width="746" height="154" fill="white" transform="translate(368.636 83)"/>
</clipPath>
</defs>
</svg>
