<svg width="311" height="80" viewBox="0 0 311 80" fill="none" xmlns="http://www.w3.org/2000/svg">
<path d="M40 72C22.3269 72 8 57.6731 8 40C8 22.3269 22.3269 8 40 8C50.549 8 59.9057 13.1044 65.7351 20.978C65.9754 21.3026 65.74 21.7552 65.3362 21.7552H40C30.0292 21.7552 21.9463 29.8382 21.9463 39.809C21.9463 49.7798 30.0292 57.8627 40 57.8627C40.5969 57.8627 41.1871 57.8372 41.7691 57.7812C41.8616 57.7723 41.9552 57.7882 42.0384 57.8294C45.1349 59.3631 47.1642 61.9314 47.1642 64.8358C47.1642 67.7824 45.0757 70.3804 41.9032 71.9058C41.8452 71.9336 41.7819 71.9497 41.7177 71.9531C41.1489 71.9833 40.5762 72 40 72Z" fill="white"/>
<path d="M50.603 39.9045C50.603 45.7076 45.8986 50.4119 40.0955 50.4119C34.2924 50.4119 29.5881 45.7076 29.5881 39.9045C29.5881 34.1014 34.2924 29.397 40.0955 29.397C45.8986 29.397 50.603 34.1014 50.603 39.9045Z" fill="white"/>
<path d="M55.7166 29.397C55.311 29.397 55.0709 29.857 55.2871 30.2002C56.3453 31.8803 57.1342 33.747 57.5933 35.7398C57.6842 36.1344 58.1785 36.2889 58.4648 36.0024L64.2143 30.2505C64.5292 29.9355 64.3061 29.397 63.8607 29.397H55.7166Z" fill="white"/>
<path d="M72 40C72 40.9333 71.96 41.8572 71.8818 42.7701C71.6543 45.4231 71.1031 47.9836 70.268 50.4119C67.6243 58.0986 62.134 64.4625 55.0573 68.2436C54.6729 68.449 54.2322 68.0839 54.322 67.6574C54.5148 66.7412 54.6149 65.7986 54.6149 64.8358C54.6149 61.1696 53.1535 57.788 50.6922 55.0778C50.4845 54.8491 50.5191 54.4878 50.7669 54.3034C52.2266 53.2171 53.5161 51.915 54.5894 50.4452C54.6056 50.4231 54.6235 50.4023 54.6431 50.383L70.7483 34.5181C71.0325 34.2382 71.512 34.3878 71.5766 34.7815C71.8551 36.4797 72 38.2229 72 40Z" fill="white"/>
<path d="M287.346 67.9334C285.6 67.9334 283.721 67.6107 281.709 66.9653C279.735 66.282 278.027 65.1621 276.584 63.6056L278.292 56.8861C279.355 58.6704 280.722 60.094 282.392 61.157C284.063 62.182 285.847 62.6945 287.745 62.6945C289.567 62.6945 290.934 62.2579 291.845 61.3847C292.756 60.4736 293.212 59.3727 293.212 58.082C293.212 56.6014 292.718 55.5195 291.731 54.8361C290.782 54.1528 289.928 53.6783 289.169 53.4125L284.556 51.6473C283.721 51.3056 282.715 50.8121 281.538 50.1667C280.361 49.4834 279.336 48.5153 278.463 47.2625C277.59 46.0097 277.153 44.3773 277.153 42.3653C277.153 40.5431 277.59 38.8727 278.463 37.3542C279.336 35.8357 280.57 34.6398 282.164 33.7667C283.759 32.8556 285.638 32.4 287.802 32.4C289.51 32.4 291.295 32.7037 293.155 33.3111C295.015 33.9185 296.59 34.9435 297.881 36.3861L296.173 43.1056C295.262 41.4352 294.028 40.1065 292.471 39.1195C290.915 38.1324 289.302 37.6389 287.631 37.6389C286.075 37.6389 284.841 38.0755 283.93 38.9486C283.057 39.8218 282.62 40.8278 282.62 41.9667C282.62 42.8778 282.924 43.694 283.531 44.4153C284.139 45.1366 285.05 45.725 286.264 46.1806L290.877 47.9459C291.712 48.2496 292.737 48.7431 293.952 49.4264C295.205 50.1098 296.306 51.0968 297.255 52.3875C298.204 53.6783 298.678 55.4246 298.678 57.6264C298.678 60.7014 297.596 63.188 295.433 65.0861C293.307 66.9843 290.611 67.9334 287.346 67.9334Z" fill="white"/>
<path d="M269.83 67.25L254.398 48.4584L267.097 33.0834H274.215L261.744 48.0028L277.632 67.25H269.83ZM247.565 67.25V12.5834H253.715V67.25H247.565Z" fill="white"/>
<path d="M235.428 67.25V12.5834H241.578V67.25H235.428Z" fill="white"/>
<path d="M213.83 67.9334C210.527 67.9334 207.509 67.1361 204.776 65.5417C202.043 63.9472 199.86 61.8023 198.227 59.107C196.633 56.4116 195.836 53.4315 195.836 50.1667C195.836 46.8639 196.633 43.8838 198.227 41.2264C199.86 38.531 202.043 36.3861 204.776 34.7917C207.509 33.1972 210.527 32.4 213.83 32.4C217.171 32.4 220.189 33.1972 222.884 34.7917C225.618 36.3861 227.781 38.531 229.376 41.2264C231.008 43.8838 231.825 46.8639 231.825 50.1667C231.825 53.4315 231.008 56.4116 229.376 59.107C227.781 61.8023 225.618 63.9472 222.884 65.5417C220.189 67.1361 217.171 67.9334 213.83 67.9334ZM213.83 62.125C216.032 62.125 218.025 61.5935 219.809 60.5306C221.594 59.4297 223.017 57.9871 224.08 56.2028C225.143 54.3806 225.675 52.3685 225.675 50.1667C225.675 47.9648 225.143 45.9718 224.08 44.1875C223.017 42.3653 221.594 40.9227 219.809 39.8597C218.025 38.7588 216.032 38.2084 213.83 38.2084C211.628 38.2084 209.635 38.7588 207.851 39.8597C206.067 40.9227 204.643 42.3653 203.58 44.1875C202.517 45.9718 201.986 47.9648 201.986 50.1667C201.986 52.3685 202.517 54.3806 203.58 56.2028C204.643 57.9871 206.067 59.4297 207.851 60.5306C209.635 61.5935 211.628 62.125 213.83 62.125Z" fill="white"/>
<path d="M183.19 67.25V38.2084H175.446V33.0834H183.361V23.2889C183.361 19.5685 184.462 16.7403 186.664 14.8042C188.866 12.8681 191.485 11.9 194.522 11.9C195.661 11.9 196.819 12.0329 197.996 12.2986C199.21 12.5644 200.349 13.0199 201.412 13.6653L199.932 19.6445C198.337 17.8982 196.477 17.025 194.351 17.025C193.06 17.025 191.865 17.4616 190.764 18.3347C189.701 19.2079 189.169 20.8972 189.169 23.4028V33.0834H197.654V38.2084H189.34V67.25H183.19Z" fill="white"/>
<path d="M172.196 67.25L156.764 48.4584L169.463 33.0834H176.581L164.11 48.0028L179.997 67.25H172.196ZM149.931 67.25V12.5834H156.081V67.25H149.931Z" fill="white"/>
<path d="M130.697 67.9334C127.129 67.9334 123.921 67.1361 121.074 65.5417C118.264 63.9472 116.044 61.7834 114.411 59.05C112.817 56.2787 112.019 53.2037 112.019 49.825C112.019 46.5982 112.798 43.675 114.354 41.0556C115.911 38.3982 117.999 36.2912 120.618 34.7347C123.275 33.1783 126.199 32.4 129.388 32.4C132.538 32.4 135.424 33.1593 138.043 34.6778C140.663 36.1584 142.75 38.1704 144.307 40.7139C145.863 43.2574 146.642 46.1426 146.642 49.3695V51.875H124.319C123.332 51.875 122.326 51.8371 121.301 51.7611C120.276 51.6852 119.27 51.5713 118.283 51.4195C118.701 54.4565 120.068 57 122.383 59.05C124.737 61.1 127.527 62.125 130.754 62.125C132.918 62.125 134.93 61.6315 136.79 60.6445C138.65 59.6574 140.15 58.3477 141.289 56.7153L142.997 63.7195C141.365 65.0482 139.486 66.0922 137.36 66.8514C135.272 67.5727 133.051 67.9334 130.697 67.9334ZM118.113 47.2625C120.163 46.9209 122.232 46.75 124.319 46.75H135.651C136.487 46.75 137.303 46.788 138.1 46.8639C138.935 46.9019 139.77 46.9588 140.606 47.0347C140.074 44.3773 138.745 42.1945 136.619 40.4861C134.494 38.7398 132.083 37.8667 129.388 37.8667C126.616 37.8667 124.187 38.7968 122.099 40.657C120.011 42.4792 118.682 44.681 118.113 47.2625Z" fill="white"/>
<path d="M95.1778 67.9334C91.6093 67.9334 88.4014 67.1361 85.5542 65.5417C82.7449 63.9472 80.5241 61.7834 78.8917 59.05C77.2972 56.2787 76.5 53.2037 76.5 49.825C76.5 46.5982 77.2782 43.675 78.8347 41.0556C80.3912 38.3982 82.4792 36.2912 85.0986 34.7347C87.756 33.1783 90.6792 32.4 93.8681 32.4C97.019 32.4 99.9042 33.1593 102.524 34.6778C105.143 36.1584 107.231 38.1704 108.787 40.7139C110.344 43.2574 111.122 46.1426 111.122 49.3695V51.875H88.8C87.813 51.875 86.8069 51.8371 85.7819 51.7611C84.7569 51.6852 83.7509 51.5713 82.7639 51.4195C83.1815 54.4565 84.5481 57 86.8639 59.05C89.2176 61.1 92.0079 62.125 95.2347 62.125C97.3986 62.125 99.4106 61.6315 101.271 60.6445C103.131 59.6574 104.631 58.3477 105.769 56.7153L107.478 63.7195C105.845 65.0482 103.966 66.0922 101.84 66.8514C99.7523 67.5727 97.5315 67.9334 95.1778 67.9334ZM82.5931 47.2625C84.6431 46.9209 86.712 46.75 88.8 46.75H100.132C100.967 46.75 101.783 46.788 102.581 46.8639C103.416 46.9019 104.251 46.9588 105.086 47.0347C104.555 44.3773 103.226 42.1945 101.1 40.4861C98.9741 38.7398 96.5634 37.8667 93.8681 37.8667C91.0968 37.8667 88.6671 38.7968 86.5792 40.657C84.4912 42.4792 83.1625 44.681 82.5931 47.2625Z" fill="white"/>
</svg>
