<svg width="180" height="64" viewBox="0 0 180 64" fill="none" xmlns="http://www.w3.org/2000/svg">
<path opacity="0.88" fill-rule="evenodd" clip-rule="evenodd" d="M11 45C11 43.3431 12.3431 42 14 42H50C51.6569 42 53 43.3431 53 45C53 46.6569 51.6569 48 50 48H14C12.3431 48 11 46.6569 11 45Z" fill="#003FFF"/>
<path fill-rule="evenodd" clip-rule="evenodd" d="M32 28C28.134 28 25 31.134 25 35C25 38.866 28.134 42 32 42C33.6569 42 35 43.3431 35 45C35 46.6569 33.6569 48 32 48C24.8203 48 19 42.1797 19 35C19 27.8203 24.8203 22 32 22C39.1797 22 45 27.8203 45 35C45 36.6569 43.6569 38 42 38C40.3431 38 39 36.6569 39 35C39 31.134 35.866 28 32 28Z" fill="#003FFF"/>
<path opacity="0.72" fill-rule="evenodd" clip-rule="evenodd" d="M32 18C22.6112 18 15 25.6112 15 35C15 36.6569 13.6569 38 12 38C10.3431 38 9 36.6569 9 35C9 22.2975 19.2975 12 32 12C44.7026 12 55 22.2975 55 35C55 36.6569 53.6569 38 52 38C50.3431 38 49 36.6569 49 35C49 25.6112 41.3888 18 32 18Z" fill="#003FFF"/>
<path d="M72.7702 47.9852C73.4891 47.9852 74.1182 47.4647 74.238 46.7658C74.7792 43.7811 75.3971 39.841 75.9178 36.5934H77.6578C78.3688 36.5934 78.991 36.0933 79.1095 35.3874L79.4798 33.3429C79.5687 32.887 79.2132 32.4751 78.754 32.4751H76.5994C76.6703 32.0746 76.9771 29.7375 77.0342 29.4517C78.0686 24.278 80.5924 22.4661 85.1485 22.4661C85.8075 22.4661 86.3767 22.02 86.5564 21.3954L87.5 16.9882C87.6198 16.557 87.3203 16.0811 86.8709 16.0513C80.9997 15.5011 74.0043 19.4271 71.8625 25.2418C71.5639 25.983 68.5521 43.9997 68.0151 47.1077L68.0099 47.1375C67.935 47.5837 68.2945 48.0001 68.7438 48.0001H72.7552L72.7702 47.9852Z" fill="#0C2982"/>
<path fill-rule="evenodd" clip-rule="evenodd" d="M99.4892 47.9447H102.867C103.606 47.9447 104.24 47.4209 104.36 46.6874L105.808 37.9013C106.728 32.2734 104.873 28.2171 102.339 26.1965C100.982 25.1487 99.3233 24.4003 97.5137 24.101C91.0291 23.0532 84.2428 27.3939 82.2824 33.9797C80.3219 40.5656 83.9412 46.7024 90.4258 47.7502C93.2157 48.1992 96.2771 47.8998 98.9916 46.5677C99.067 46.5378 99.1122 46.5677 99.0971 46.6575L98.9765 47.361C98.9312 47.7651 99.1273 47.9447 99.4892 47.9447ZM91.9339 42.3617C95.4024 42.9604 98.7201 40.5656 99.7757 36.9733C100.982 33.381 99.4741 29.9384 96.0056 29.3397C92.5371 28.741 89.2194 31.1358 88.1638 34.7281C86.9573 38.3204 88.4654 41.763 91.9339 42.3617Z" fill="#0C2982"/>
<path d="M111.162 48C111.881 48 112.522 47.4648 112.642 46.7661C114.336 37.4241 116.407 26.2152 118.023 16.8623C118.098 16.4163 117.738 16.0001 117.289 16.0001L113.71 16.0001C112.991 16.0001 112.361 16.5352 112.241 17.2339C110.547 26.576 108.476 37.7849 106.86 47.1378C106.785 47.5838 107.145 48 107.594 48H111.162Z" fill="#0C2982"/>
<path fill-rule="evenodd" clip-rule="evenodd" d="M134.989 47.9447H138.367C139.106 47.9447 139.74 47.4209 139.86 46.6874L141.308 37.9013C142.228 32.2734 140.373 28.2171 137.839 26.1965C136.482 25.1487 134.823 24.4003 133.014 24.101C126.529 23.0532 119.743 27.3939 117.782 33.9797C115.822 40.5656 119.441 46.7024 125.926 47.7502C128.716 48.1992 131.777 47.8998 134.492 46.5677C134.567 46.5378 134.612 46.5677 134.597 46.6575L134.476 47.361C134.431 47.7651 134.627 47.9447 134.989 47.9447ZM127.434 42.3617C130.902 42.9604 134.22 40.5656 135.276 36.9733C136.482 33.381 134.974 29.9384 131.506 29.3397C128.037 28.741 124.719 31.1358 123.664 34.7281C122.457 38.3204 123.965 41.763 127.434 42.3617Z" fill="#0C2982"/>
<path fill-rule="evenodd" clip-rule="evenodd" d="M160.256 56.0001H163.53C164.269 56.0001 164.903 55.4733 165.023 54.7399L167.757 37.9558C168.677 32.3281 166.822 28.2719 164.289 26.2513C162.932 25.2036 161.273 24.4552 159.463 24.1559C152.979 23.1082 146.193 27.4487 144.233 34.0343C142.272 40.62 145.891 46.7566 152.376 47.8043C155.166 48.2533 158.227 47.954 160.941 46.6219C161.017 46.592 161.062 46.6219 161.047 46.7117L159.736 55.2617C159.691 55.6658 159.895 56.0001 160.256 56.0001ZM153.884 42.4161C157.352 43.0148 160.67 40.62 161.725 37.0278C162.932 33.4356 161.424 29.9932 157.955 29.3945C154.487 28.7958 151.169 31.1905 150.114 34.7827C148.907 38.3749 150.415 41.8174 153.884 42.4161Z" fill="#0C2982"/>
</svg>
