<svg width="611" height="151" viewBox="0 0 611 151" fill="none" xmlns="http://www.w3.org/2000/svg">
<path d="M560.19 110.96C554.67 110.96 549.35 110.32 544.23 109.04C539.19 107.68 535.19 106 532.23 104L538.47 90.56C541.43 92.4 544.91 93.92 548.91 95.12C552.99 96.24 556.99 96.8 560.91 96.8C565.23 96.8 568.27 96.28 570.03 95.24C571.87 94.2 572.79 92.76 572.79 90.92C572.79 89.4 572.07 88.28 570.63 87.56C569.27 86.76 567.43 86.16 565.11 85.76C562.79 85.36 560.23 84.96 557.43 84.56C554.71 84.16 551.95 83.64 549.15 83C546.35 82.28 543.79 81.24 541.47 79.88C539.15 78.52 537.27 76.68 535.83 74.36C534.47 72.04 533.79 69.04 533.79 65.36C533.79 61.28 534.95 57.68 537.27 54.56C539.67 51.44 543.11 49 547.59 47.24C552.07 45.4 557.43 44.48 563.67 44.48C568.07 44.48 572.55 44.96 577.11 45.92C581.67 46.88 585.47 48.28 588.51 50.12L582.27 63.44C579.15 61.6 575.99 60.36 572.79 59.72C569.67 59 566.63 58.64 563.67 58.64C559.51 58.64 556.47 59.2 554.55 60.32C552.63 61.44 551.67 62.88 551.67 64.64C551.67 66.24 552.35 67.44 553.71 68.24C555.15 69.04 557.03 69.68 559.35 70.16C561.67 70.64 564.19 71.08 566.91 71.48C569.71 71.8 572.51 72.32 575.31 73.04C578.11 73.76 580.63 74.8 582.87 76.16C585.19 77.44 587.07 79.24 588.51 81.56C589.95 83.8 590.67 86.76 590.67 90.44C590.67 94.44 589.47 98 587.07 101.12C584.67 104.16 581.19 106.56 576.63 108.32C572.15 110.08 566.67 110.96 560.19 110.96Z" fill="white"/>
<path d="M481.641 96.8L482.121 74L512.241 45.44H534.561L505.641 74.84L495.921 82.76L481.641 96.8ZM466.161 110V20.96H484.881V110H466.161ZM514.281 110L492.441 82.88L504.201 68.36L536.961 110H514.281Z" fill="white"/>
<path d="M434.867 110V20.96H453.587V110H434.867Z" fill="white"/>
<path d="M391.754 110.96C384.874 110.96 378.754 109.52 373.394 106.64C368.114 103.76 363.914 99.84 360.794 94.88C357.754 89.84 356.234 84.12 356.234 77.72C356.234 71.24 357.754 65.52 360.794 60.56C363.914 55.52 368.114 51.6 373.394 48.8C378.754 45.92 384.874 44.48 391.754 44.48C398.554 44.48 404.634 45.92 409.994 48.8C415.354 51.6 419.554 55.48 422.594 60.44C425.634 65.4 427.154 71.16 427.154 77.72C427.154 84.12 425.634 89.84 422.594 94.88C419.554 99.84 415.354 103.76 409.994 106.64C404.634 109.52 398.554 110.96 391.754 110.96ZM391.754 95.6C394.874 95.6 397.674 94.88 400.154 93.44C402.634 92 404.594 89.96 406.034 87.32C407.474 84.6 408.194 81.4 408.194 77.72C408.194 73.96 407.474 70.76 406.034 68.12C404.594 65.48 402.634 63.44 400.154 62C397.674 60.56 394.874 59.84 391.754 59.84C388.634 59.84 385.834 60.56 383.354 62C380.874 63.44 378.874 65.48 377.354 68.12C375.914 70.76 375.194 73.96 375.194 77.72C375.194 81.4 375.914 84.6 377.354 87.32C378.874 89.96 380.874 92 383.354 93.44C385.834 94.88 388.634 95.6 391.754 95.6Z" fill="white"/>
<path d="M322.528 110V44C322.528 36.72 324.688 30.92 329.008 26.6C333.328 22.2 339.488 20 347.488 20C350.208 20 352.808 20.28 355.288 20.84C357.848 21.4 360.008 22.28 361.768 23.48L356.848 37.04C355.808 36.32 354.648 35.76 353.368 35.36C352.088 34.96 350.728 34.76 349.288 34.76C346.568 34.76 344.448 35.56 342.928 37.16C341.488 38.68 340.768 41 340.768 44.12V50.12L341.248 58.16V110H322.528ZM312.568 61.28V46.88H357.328V61.28H312.568Z" fill="white"/>
<path d="M261.31 96.8L261.79 74L291.91 45.44H314.23L285.31 74.84L275.59 82.76L261.31 96.8ZM245.83 110V20.96H264.55V110H245.83ZM293.95 110L272.11 82.88L283.87 68.36L316.63 110H293.95Z" fill="white"/>
<path d="M206.967 110.96C199.607 110.96 193.127 109.52 187.527 106.64C182.007 103.76 177.727 99.84 174.687 94.88C171.647 89.84 170.127 84.12 170.127 77.72C170.127 71.24 171.607 65.52 174.567 60.56C177.607 55.52 181.727 51.6 186.927 48.8C192.127 45.92 198.007 44.48 204.567 44.48C210.887 44.48 216.567 45.84 221.607 48.56C226.727 51.2 230.767 55.04 233.727 60.08C236.687 65.04 238.167 71 238.167 77.96C238.167 78.68 238.127 79.52 238.047 80.48C237.967 81.36 237.887 82.2 237.807 83H185.367V72.08H227.967L220.767 75.32C220.767 71.96 220.087 69.04 218.727 66.56C217.367 64.08 215.487 62.16 213.087 60.8C210.687 59.36 207.887 58.64 204.687 58.64C201.487 58.64 198.647 59.36 196.167 60.8C193.767 62.16 191.887 64.12 190.527 66.68C189.167 69.16 188.487 72.12 188.487 75.56V78.44C188.487 81.96 189.247 85.08 190.767 87.8C192.367 90.44 194.567 92.48 197.367 93.92C200.247 95.28 203.607 95.96 207.447 95.96C210.887 95.96 213.887 95.44 216.447 94.4C219.087 93.36 221.487 91.8 223.647 89.72L233.607 100.52C230.647 103.88 226.927 106.48 222.447 108.32C217.967 110.08 212.807 110.96 206.967 110.96Z" fill="white"/>
<path d="M136.063 110.96C128.703 110.96 122.223 109.52 116.623 106.64C111.103 103.76 106.823 99.84 103.783 94.88C100.743 89.84 99.2234 84.12 99.2234 77.72C99.2234 71.24 100.703 65.52 103.663 60.56C106.703 55.52 110.823 51.6 116.023 48.8C121.223 45.92 127.103 44.48 133.663 44.48C139.983 44.48 145.663 45.84 150.703 48.56C155.823 51.2 159.863 55.04 162.823 60.08C165.783 65.04 167.263 71 167.263 77.96C167.263 78.68 167.223 79.52 167.143 80.48C167.063 81.36 166.983 82.2 166.903 83H114.463V72.08H157.063L149.863 75.32C149.863 71.96 149.183 69.04 147.823 66.56C146.463 64.08 144.583 62.16 142.183 60.8C139.783 59.36 136.983 58.64 133.783 58.64C130.583 58.64 127.743 59.36 125.263 60.8C122.863 62.16 120.983 64.12 119.623 66.68C118.263 69.16 117.583 72.12 117.583 75.56V78.44C117.583 81.96 118.343 85.08 119.863 87.8C121.463 90.44 123.663 92.48 126.463 93.92C129.343 95.28 132.703 95.96 136.543 95.96C139.983 95.96 142.983 95.44 145.543 94.4C148.183 93.36 150.583 91.8 152.743 89.72L162.703 100.52C159.743 103.88 156.023 106.48 151.543 108.32C147.063 110.08 141.903 110.96 136.063 110.96Z" fill="white"/>
<path d="M55.16 134.24C49.08 134.24 43.2 133.48 37.52 131.96C31.92 130.52 27.24 128.32 23.48 125.36L30.92 111.92C33.64 114.16 37.08 115.92 41.24 117.2C45.48 118.56 49.64 119.24 53.72 119.24C60.36 119.24 65.16 117.76 68.12 114.8C71.16 111.84 72.68 107.44 72.68 101.6V91.88L73.88 75.68L73.64 59.36V45.44H91.4V99.2C91.4 111.2 88.28 120.04 82.04 125.72C75.8 131.4 66.84 134.24 55.16 134.24ZM52.28 106.88C46.28 106.88 40.84 105.6 35.96 103.04C31.16 100.4 27.28 96.76 24.32 92.12C21.44 87.4 20 81.92 20 75.68C20 69.36 21.44 63.88 24.32 59.24C27.28 54.52 31.16 50.88 35.96 48.32C40.84 45.76 46.28 44.48 52.28 44.48C57.72 44.48 62.52 45.6 66.68 47.84C70.84 50 74.08 53.4 76.4 58.04C78.72 62.6 79.88 68.48 79.88 75.68C79.88 82.8 78.72 88.68 76.4 93.32C74.08 97.88 70.84 101.28 66.68 103.52C62.52 105.76 57.72 106.88 52.28 106.88ZM56 91.52C59.28 91.52 62.2 90.88 64.76 89.6C67.32 88.24 69.32 86.36 70.76 83.96C72.2 81.56 72.92 78.8 72.92 75.68C72.92 72.48 72.2 69.72 70.76 67.4C69.32 65 67.32 63.16 64.76 61.88C62.2 60.52 59.28 59.84 56 59.84C52.72 59.84 49.8 60.52 47.24 61.88C44.68 63.16 42.64 65 41.12 67.4C39.68 69.72 38.96 72.48 38.96 75.68C38.96 78.8 39.68 81.56 41.12 83.96C42.64 86.36 44.68 88.24 47.24 89.6C49.8 90.88 52.72 91.52 56 91.52Z" fill="white"/>
</svg>
