<svg width="156" height="40" viewBox="0 0 156 40" fill="none" xmlns="http://www.w3.org/2000/svg">
<path d="M20 36C11.1634 36 4 28.8366 4 20C4 11.1634 11.1634 4 20 4C25.2745 4 29.9529 6.5522 32.8676 10.489C32.9877 10.6513 32.87 10.8776 32.6681 10.8776H20C15.0146 10.8776 10.9731 14.9191 10.9731 19.9045C10.9731 24.8899 15.0146 28.9313 20 28.9313C20.2985 28.9313 20.5935 28.9186 20.8846 28.8906C20.9308 28.8861 20.9776 28.8941 21.0192 28.9147C22.5674 29.6815 23.5821 30.9657 23.5821 32.4179C23.5821 33.8912 22.5378 35.1902 20.9516 35.9529C20.9226 35.9668 20.891 35.9748 20.8588 35.9765C20.5745 35.9917 20.2881 36 20 36Z" fill="#40ED99"/>
<path d="M25.3015 19.9522C25.3015 22.8538 22.9493 25.206 20.0478 25.206C17.1462 25.206 14.794 22.8538 14.794 19.9522C14.794 17.0507 17.1462 14.6985 20.0478 14.6985C22.9493 14.6985 25.3015 17.0507 25.3015 19.9522Z" fill="#40ED99"/>
<path d="M27.8583 14.6985C27.6555 14.6985 27.5354 14.9285 27.6435 15.1001C28.1726 15.9401 28.5671 16.8735 28.7966 17.8699C28.8421 18.0672 29.0892 18.1444 29.2324 18.0012L32.1072 15.1252C32.2646 14.9677 32.153 14.6985 31.9303 14.6985H27.8583Z" fill="#40ED99"/>
<path d="M36 20C36 20.4666 35.98 20.9286 35.9409 21.3851C35.8271 22.7115 35.5516 23.9918 35.134 25.206C33.8122 29.0493 31.067 32.2313 27.5287 34.1218C27.3364 34.2245 27.1161 34.0419 27.161 33.8287C27.2574 33.3706 27.3075 32.8993 27.3075 32.4179C27.3075 30.5848 26.5768 28.894 25.3461 27.5389C25.2423 27.4245 25.2596 27.2439 25.3835 27.1517C26.1133 26.6086 26.7581 25.9575 27.2947 25.2226C27.3028 25.2116 27.3118 25.2011 27.3215 25.1915L35.3741 17.2591C35.5162 17.1191 35.756 17.1939 35.7883 17.3907C35.9276 18.2399 36 19.1115 36 20Z" fill="#40ED99"/>
<path d="M143.673 33.9666C142.8 33.9666 141.86 33.8053 140.854 33.4826C139.867 33.1409 139.013 32.581 138.292 31.8027L139.146 28.443C139.678 29.3351 140.361 30.0469 141.196 30.5784C142.031 31.0909 142.923 31.3472 143.872 31.3472C144.784 31.3472 145.467 31.1289 145.922 30.6923C146.378 30.2368 146.606 29.6863 146.606 29.0409C146.606 28.3006 146.359 27.7597 145.866 27.418C145.391 27.0763 144.964 26.8391 144.584 26.7062L142.278 25.8236C141.86 25.6527 141.357 25.406 140.769 25.0833C140.181 24.7416 139.668 24.2576 139.232 23.6312C138.795 23.0048 138.577 22.1886 138.577 21.1826C138.577 20.2715 138.795 19.4363 139.232 18.677C139.668 17.9178 140.285 17.3199 141.082 16.8833C141.879 16.4277 142.819 16.2 143.901 16.2C144.755 16.2 145.647 16.3518 146.577 16.6555C147.507 16.9592 148.295 17.4717 148.941 18.193L148.086 21.5527C147.631 20.7175 147.014 20.0532 146.236 19.5597C145.457 19.0662 144.651 18.8194 143.816 18.8194C143.037 18.8194 142.42 19.0377 141.965 19.4743C141.528 19.9108 141.31 20.4138 141.31 20.9833C141.31 21.4388 141.462 21.8469 141.766 22.2076C142.069 22.5682 142.525 22.8625 143.132 23.0902L145.438 23.9729C145.856 24.1247 146.369 24.3715 146.976 24.7131C147.602 25.0548 148.153 25.5483 148.627 26.1937C149.102 26.8391 149.339 27.7122 149.339 28.8131C149.339 30.3506 148.798 31.5939 147.716 32.543C146.653 33.4921 145.306 33.9666 143.673 33.9666Z" fill="white"/>
<path d="M134.915 33.6248L127.199 24.229L133.549 16.5415H137.108L130.872 24.0012L138.816 33.6248H134.915ZM123.783 33.6248V6.2915H126.858V33.6248H123.783Z" fill="white"/>
<path d="M117.714 33.6248V6.2915H120.789V33.6248H117.714Z" fill="white"/>
<path d="M106.915 33.9666C105.264 33.9666 103.755 33.568 102.388 32.7708C101.021 31.9736 99.9298 30.9011 99.1136 29.5534C98.3164 28.2057 97.9178 26.7157 97.9178 25.0833C97.9178 23.4319 98.3164 21.9418 99.1136 20.6131C99.9298 19.2655 101.021 18.193 102.388 17.3958C103.755 16.5986 105.264 16.2 106.915 16.2C108.585 16.2 110.094 16.5986 111.442 17.3958C112.809 18.193 113.891 19.2655 114.688 20.6131C115.504 21.9418 115.912 23.4319 115.912 25.0833C115.912 26.7157 115.504 28.2057 114.688 29.5534C113.891 30.9011 112.809 31.9736 111.442 32.7708C110.094 33.568 108.585 33.9666 106.915 33.9666ZM106.915 31.0625C108.016 31.0625 109.012 30.7967 109.905 30.2652C110.797 29.7148 111.509 28.9935 112.04 28.1013C112.571 27.1902 112.837 26.1842 112.837 25.0833C112.837 23.9824 112.571 22.9858 112.04 22.0937C111.509 21.1826 110.797 20.4613 109.905 19.9298C109.012 19.3794 108.016 19.1041 106.915 19.1041C105.814 19.1041 104.818 19.3794 103.925 19.9298C103.033 20.4613 102.321 21.1826 101.79 22.0937C101.259 22.9858 100.993 23.9824 100.993 25.0833C100.993 26.1842 101.259 27.1902 101.79 28.1013C102.321 28.9935 103.033 29.7148 103.925 30.2652C104.818 30.7967 105.814 31.0625 106.915 31.0625Z" fill="white"/>
<path d="M91.595 33.625V19.1041H87.7228V16.5416H91.6804V11.6444C91.6804 9.78421 92.2309 8.37009 93.3318 7.40203C94.4327 6.43398 95.7425 5.94995 97.261 5.94995C97.8304 5.94995 98.4093 6.01639 98.9978 6.14926C99.6052 6.28213 100.175 6.5099 100.706 6.83259L99.9658 9.82217C99.1686 8.94902 98.2385 8.51245 97.1756 8.51245C96.5302 8.51245 95.9323 8.73074 95.3818 9.16731C94.8503 9.60389 94.5846 10.4486 94.5846 11.7013V16.5416H98.8269V19.1041H94.67V33.625H91.595Z" fill="white"/>
<path d="M86.0979 33.6248L78.3819 24.229L84.7312 16.5415H88.2903L82.0549 24.0012L89.9986 33.6248H86.0979ZM74.9653 33.6248V6.2915H78.0403V33.6248H74.9653Z" fill="white"/>
<path d="M65.3486 33.9666C63.5643 33.9666 61.9604 33.568 60.5368 32.7708C59.1322 31.9736 58.0217 30.8916 57.2055 29.525C56.4083 28.1393 56.0097 26.6018 56.0097 24.9125C56.0097 23.299 56.3988 21.8375 57.1771 20.5277C57.9553 19.199 58.9993 18.1456 60.309 17.3673C61.6377 16.5891 63.0993 16.2 64.6937 16.2C66.2692 16.2 67.7118 16.5796 69.0215 17.3388C70.3312 18.0791 71.3752 19.0851 72.1535 20.3569C72.9317 21.6287 73.3208 23.0712 73.3208 24.6847V25.9375H62.1597C61.6662 25.9375 61.1632 25.9185 60.6507 25.8805C60.1382 25.8425 59.6352 25.7856 59.1416 25.7097C59.3504 27.2282 60.0338 28.5 61.1916 29.525C62.3685 30.55 63.7636 31.0625 65.3771 31.0625C66.459 31.0625 67.465 30.8157 68.3951 30.3222C69.3252 29.8287 70.075 29.1738 70.6444 28.3576L71.4986 31.8597C70.6824 32.524 69.7428 33.046 68.6798 33.4256C67.6359 33.7863 66.5254 33.9666 65.3486 33.9666ZM59.0562 23.6312C60.0812 23.4604 61.1157 23.375 62.1597 23.375H67.8257C68.2433 23.375 68.6514 23.3939 69.05 23.4319C69.4676 23.4509 69.8852 23.4794 70.3028 23.5173C70.037 22.1886 69.3727 21.0972 68.3097 20.243C67.2467 19.3699 66.0414 18.9333 64.6937 18.9333C63.3081 18.9333 62.0933 19.3983 61.0493 20.3284C60.0053 21.2395 59.341 22.3405 59.0562 23.6312Z" fill="white"/>
<path d="M47.5889 33.9666C45.8046 33.9666 44.2007 33.568 42.7771 32.7708C41.3725 31.9736 40.262 30.8916 39.4458 29.525C38.6486 28.1393 38.25 26.6018 38.25 24.9125C38.25 23.299 38.6391 21.8375 39.4174 20.5277C40.1956 19.199 41.2396 18.1456 42.5493 17.3673C43.878 16.5891 45.3396 16.2 46.934 16.2C48.5095 16.2 49.9521 16.5796 51.2618 17.3388C52.5715 18.0791 53.6155 19.0851 54.3937 20.3569C55.172 21.6287 55.5611 23.0712 55.5611 24.6847V25.9375H44.4C43.9065 25.9375 43.4035 25.9185 42.891 25.8805C42.3785 25.8425 41.8755 25.7856 41.3819 25.7097C41.5907 27.2282 42.2741 28.5 43.4319 29.525C44.6088 30.55 46.0039 31.0625 47.6174 31.0625C48.6993 31.0625 49.7053 30.8157 50.6354 30.3222C51.5655 29.8287 52.3153 29.1738 52.8847 28.3576L53.7389 31.8597C52.9227 32.524 51.9831 33.046 50.9201 33.4256C49.8762 33.7863 48.7657 33.9666 47.5889 33.9666ZM41.2965 23.6312C42.3215 23.4604 43.356 23.375 44.4 23.375H50.066C50.4836 23.375 50.8917 23.3939 51.2903 23.4319C51.7079 23.4509 52.1255 23.4794 52.5431 23.5173C52.2773 22.1886 51.613 21.0972 50.55 20.243C49.487 19.3699 48.2817 18.9333 46.934 18.9333C45.5484 18.9333 44.3336 19.3983 43.2896 20.3284C42.2456 21.2395 41.5813 22.3405 41.2965 23.6312Z" fill="white"/>
</svg>
