<svg width="87" height="32" viewBox="0 0 87 32" fill="none" xmlns="http://www.w3.org/2000/svg">
<path opacity="0.72" d="M9.79791 18.1443H5.57523V22.367H9.79791V18.1443Z" fill="white"/>
<path opacity="0.56" d="M9.79791 22.3669H5.57523V26.5896H9.79791V22.3669Z" fill="white"/>
<path opacity="0.88" d="M14.0207 18.1443H9.798V22.367H14.0207V18.1443Z" fill="white"/>
<path opacity="0.88" d="M9.79791 13.9216H5.57523V18.1443H9.79791V13.9216Z" fill="white"/>
<path d="M74.7253 22.2622C71.4943 22.2622 69.0217 19.7839 69.0217 16.6118C69.0547 13.4727 71.5273 11.0605 74.7583 11.0605C77.9893 11.0605 80.5278 13.5388 80.5278 16.6779C80.4949 19.817 77.9563 22.2622 74.7253 22.2622ZM77.3298 16.6448C77.3298 15.0918 76.2088 13.9353 74.7583 13.9353C73.2747 13.9353 72.1867 15.0918 72.1867 16.6779C72.1867 18.2309 73.2747 19.3874 74.7583 19.3874C76.2418 19.3544 77.3298 18.1979 77.3298 16.6448Z" fill="white"/>
<path d="M63.1198 25.9298C62.8232 25.9298 62.6583 25.7976 62.6583 25.5333C62.6583 24.9385 62.6583 24.3437 62.6253 23.782C62.6253 23.5837 62.7903 23.4516 62.9552 23.4516C62.9552 23.4516 63.0212 23.4516 63.2188 23.4185C63.8453 23.3855 64.4387 23.1211 64.4717 22.4272L64.5377 11.7213C64.5377 11.523 64.6697 11.3908 64.8673 11.3908H67.1423C67.3399 11.3908 67.4718 11.523 67.4718 11.7213L67.4388 22.3611C67.4058 24.1455 66.7137 25.4341 65.2298 25.7976C64.8013 25.8968 64.4388 25.9298 64.0762 25.9298H63.1198ZM64.1748 7.95435C64.1748 8.97868 64.9992 9.77172 65.9883 9.77172C67.0103 9.77172 67.8017 8.94566 67.8017 7.9213C67.8017 6.89697 67.0103 6.10393 65.9553 6.13698C64.9663 6.13698 64.1748 6.89697 64.1748 7.95435Z" fill="white"/>
<path d="M27.7444 25.5994V11.7213C27.7444 11.523 27.8762 11.3909 28.0741 11.3909H30.3489C30.4478 11.3909 30.5137 11.4569 30.5137 11.5561V12.25C31.6347 11.2587 33.0854 10.9613 34.5029 11.1265C35.9208 11.2917 37.1075 11.9856 37.9649 13.1421C39.4814 15.2569 39.3824 18.5612 37.7339 20.5438C36.1184 22.4933 33.7448 22.7907 30.8434 21.4029V25.5664C30.8434 25.7646 30.7115 25.8968 30.5137 25.8968H28.107C27.9092 25.9298 27.7444 25.7977 27.7444 25.5994ZM30.7775 16.7108C30.7775 18.363 31.7995 19.4864 33.2833 19.4864C34.7998 19.4864 35.8878 18.2638 35.8548 16.6778C35.8218 15.0917 34.7338 13.9352 33.2503 13.9682C31.7666 13.9682 30.7775 15.0587 30.7775 16.7108Z" fill="white"/>
<path d="M42.976 21.9646H40.6351C40.4374 21.9646 40.3055 21.8325 40.3055 21.6342V11.7213C40.3055 11.523 40.4374 11.3908 40.6351 11.3908H42.976C43.1739 11.3908 43.3056 11.523 43.3056 11.7213V21.6342C43.3056 21.8325 43.141 21.9646 42.976 21.9646ZM39.9429 7.95435C39.9429 8.97868 40.767 9.77172 41.756 9.77172C42.7781 9.77172 43.5695 8.94566 43.5695 7.9213C43.5695 6.89697 42.7781 6.10393 41.7231 6.13698C40.734 6.13698 39.9429 6.89697 39.9429 7.95435Z" fill="white"/>
<path d="M61.4057 21.9317H58.9661C58.7682 21.9317 58.6362 21.7996 58.6362 21.6013V20.9074C58.6362 19.2883 58.6362 17.7683 58.6362 16.1492C58.6362 14.7283 57.9441 13.9022 56.7571 13.9353C55.6361 13.9684 54.9767 14.7283 54.9437 16.0831C54.9437 15.5544 54.9107 15.0257 54.8447 14.4971C54.7461 13.704 54.4822 13.0431 54.0866 12.5475C54.0866 12.5475 54.1856 12.4484 54.4162 12.2831C55.3722 11.4571 56.5262 11.1597 57.7132 11.1597C59.8232 11.1597 61.3727 12.4153 61.6036 14.4971C61.7683 15.9509 61.7023 17.4048 61.7353 18.8587C61.7353 19.7839 61.7353 20.6431 61.7353 21.6343C61.7353 21.7996 61.6036 21.9317 61.4057 21.9317ZM47.6576 12.2501V11.5232C47.6576 11.424 47.5916 11.358 47.4926 11.358C47.1301 11.358 46.174 11.3249 45.4816 11.3249C45.284 11.3249 45.152 11.4571 45.152 11.6553V21.6343C45.152 21.8326 45.284 21.9648 45.4816 21.9648H47.8555C48.0531 21.9648 48.1851 21.8326 48.1851 21.6343C48.1851 20.61 48.1851 17.537 48.1851 16.1162C48.1851 14.7614 48.8445 13.9684 49.9985 13.9353C51.1522 13.9022 51.8446 14.7283 51.8776 16.1492C51.8776 17.537 51.8776 20.577 51.8776 21.6343C51.8776 21.8326 52.0096 21.9648 52.2072 21.9648H54.6471C54.8447 21.9648 54.9767 21.8326 54.9767 21.6343C54.9767 20.6761 54.9767 19.817 54.9767 18.8587C54.9437 17.4048 55.0097 15.9509 54.8447 14.4971C54.6141 12.3823 53.0646 11.1597 50.9546 11.1597C49.8006 11.1266 48.6136 11.424 47.6576 12.2501Z" fill="white"/>
<path d="M22.4659 13.9217C22.4659 18.5842 18.6831 22.367 14.0206 22.367V18.1444C16.3606 18.1444 18.2433 16.2617 18.2433 13.9217C18.2433 11.5992 16.3606 9.699 14.0206 9.699C11.6805 9.699 9.79791 11.5816 9.79791 13.9217H5.57523C5.57523 9.25911 9.35806 5.47632 14.0206 5.47632C18.7007 5.47632 22.4659 9.25911 22.4659 13.9217Z" fill="white"/>
</svg>
