<svg width="116" height="32" viewBox="0 0 116 32" fill="none" xmlns="http://www.w3.org/2000/svg">
<path opacity="0.64" d="M23.25 26H21.75C19.2466 26 17.2136 24.0739 16.07 22L16.0718 21.9997C17.5755 21.9865 18.9803 21.5583 20.1771 20.8243C20.5726 20.5816 20.9455 20.3055 21.2917 20H22.25C23.0784 20 23.75 20.6716 23.75 21.5V25.5C23.75 25.7761 23.5261 26 23.25 26Z" fill="white"/>
<path d="M14 25C14 25.5523 13.5523 26 13 26H9C8.44773 26 8 25.5523 8 25V14C8 9.58173 11.5817 6 16 6C20.4183 6 24 9.58173 24 14C24 16.8874 22.4703 19.4176 20.1771 20.8243C18.9803 21.5583 17.5756 21.9865 16.0718 21.9997L16.0703 22C15.3896 20.8233 15 19.4571 15 18C15 17.9785 15.0001 17.957 15.0003 17.9355C15.0045 17.3997 15.4641 17 16 17C17.6569 17 19 15.6569 19 14C19 12.3431 17.6569 11 16 11C14.8954 11 14 11.8954 14 13V25Z" fill="white"/>
<path d="M42.8377 12.1342C42.3799 11.9352 41.922 11.8357 41.4641 11.8357C40.5286 11.8357 39.7224 12.174 39.0456 12.8506C38.3688 13.5272 38.0304 14.3332 38.0304 15.2686V24.8506H36V15.2686C36 14.1939 36.2787 13.2188 36.8361 12.3432C37.4133 11.4476 38.1598 10.781 39.0755 10.3432L39.1352 10.3133C39.8717 9.97504 40.648 9.80591 41.4641 9.80591C42.7381 9.80591 43.8728 10.1939 44.8681 10.97L42.8377 12.1342Z" fill="white"/>
<path d="M59.3459 10.3134V24.8508H57.2856V22.1045C55.9121 24.0348 54.0807 25 51.7916 25C50.4181 25 49.1541 24.6717 47.9995 24.015C46.845 23.3384 45.9293 22.4229 45.2525 21.2687C44.5956 20.1144 44.2672 18.8607 44.2672 17.5075C44.2672 16.1344 44.5956 14.8707 45.2525 13.7164C45.9293 12.5622 46.845 11.6568 47.9995 11C49.1541 10.3234 50.4181 9.98511 51.7916 9.98511C53.2049 9.98511 54.3595 10.2836 55.2552 10.8806C56.1709 11.4578 56.8477 12.0846 57.2856 12.7612V10.3134H59.3459ZM51.7916 22.9702C52.7869 22.9702 53.7025 22.7314 54.5386 22.2538C55.3747 21.7562 56.0315 21.0896 56.5093 20.2538C57.0069 19.418 57.2557 18.5025 57.2557 17.5075C57.2557 16.5125 57.0069 15.597 56.5093 14.7612C56.0315 13.9055 55.3747 13.2388 54.5386 12.7612C53.7025 12.2637 52.7869 12.015 51.7916 12.015C50.7963 12.015 49.8707 12.2637 49.0148 12.7612C48.1787 13.2388 47.5118 13.9055 47.0142 14.7612C46.5364 15.597 46.2975 16.5125 46.2975 17.5075C46.2975 18.5025 46.5364 19.418 47.0142 20.2538C47.5118 21.0896 48.1787 21.7562 49.0148 22.2538C49.8707 22.7314 50.7963 22.9702 51.7916 22.9702Z" fill="white"/>
<path d="M63.2333 20.8508C63.3926 21.408 63.6414 21.8459 63.9798 22.1643C64.5372 22.6817 65.3533 22.9403 66.4283 22.9403C67.364 22.9403 68.12 22.7215 68.6973 22.2837C69.2747 21.8459 69.5633 21.2787 69.5633 20.5821C69.5633 19.9255 69.434 19.4379 69.1753 19.1195C68.9167 18.8011 68.578 18.6021 68.16 18.5225C67.762 18.4229 67.2047 18.3633 66.4879 18.3433C65.4529 18.2837 64.6069 18.1742 63.9499 18.015C63.2931 17.8359 62.6959 17.4478 62.1584 16.8508C61.5015 16.0349 61.1731 15.1394 61.1731 14.1643C61.1731 13.9255 61.1831 13.7463 61.2029 13.6269C61.3622 12.3732 61.8897 11.418 62.7855 10.7613C63.6812 10.0847 64.8855 9.74634 66.3984 9.74634H66.4283C67.5427 9.74634 68.4487 9.95527 69.1453 10.3732C69.842 10.7911 70.3793 11.2986 70.758 11.8956C71.156 12.5523 71.4047 13.2389 71.504 13.9553H69.414C69.374 13.6767 69.2447 13.3483 69.026 12.9702C68.528 12.214 67.6627 11.816 66.4283 11.7762C65.1742 11.7762 64.3481 11.9851 63.9499 12.4031C63.5519 12.8209 63.313 13.3085 63.2333 13.8657C63.2135 13.9453 63.2035 14.0548 63.2035 14.1941C63.2035 14.6717 63.3727 15.0996 63.7111 15.4777C63.9898 15.816 64.3481 16.0449 64.786 16.1643C65.2239 16.2637 65.851 16.3433 66.6673 16.4031C67.324 16.4429 67.8813 16.5025 68.3393 16.5821C68.8167 16.6617 69.2647 16.811 69.6827 17.0299C70.9767 17.7265 71.624 18.9105 71.624 20.5821C71.624 21.1593 71.504 21.7165 71.2653 22.2538C71.0467 22.7712 70.728 23.2289 70.31 23.6269C69.374 24.5423 68.0907 25.0001 66.4581 25.0001C64.8656 25.0001 63.5717 24.5523 62.5765 23.6568C61.8001 22.9005 61.3224 21.9653 61.1432 20.8508H63.2333Z" fill="white"/>
<path d="M79.646 24.97C78.5707 24.97 77.5753 24.7114 76.66 24.1939C75.764 23.6566 75.0473 22.9402 74.51 22.0447C73.9727 21.1292 73.704 20.1342 73.704 19.0596V9.92529H75.764V19.0596C75.764 19.7561 75.9333 20.4029 76.2713 20.9999C76.63 21.5969 77.108 22.0745 77.7047 22.4328C78.302 22.771 78.9487 22.9402 79.646 22.9402C80.3427 22.9402 80.9893 22.771 81.5867 22.4328C82.1833 22.0745 82.6513 21.5969 82.99 20.9999C83.348 20.4029 83.5273 19.7561 83.5273 19.0596V9.92529H85.558V24.7014H83.5273V23.2686C83.03 23.8258 82.4427 24.2536 81.7653 24.5522C81.1087 24.8308 80.402 24.97 79.646 24.97Z" fill="white"/>
<path d="M94.9727 11.9552H92.494V24.8507H90.434V11.9552H87.9553V9.9254H90.434V5H92.494V9.9254H94.9727V11.9552Z" fill="white"/>
<path d="M111 10.3134V24.8508H108.94V22.1045C107.566 24.0348 105.735 25 103.446 25C102.072 25 100.808 24.6717 99.6533 24.015C98.4993 23.3384 97.5833 22.4229 96.9067 21.2687C96.25 20.1144 95.9213 18.8607 95.9213 17.5075C95.9213 16.1344 96.25 14.8707 96.9067 13.7164C97.5833 12.5622 98.4993 11.6568 99.6533 11C100.808 10.3234 102.072 9.98511 103.446 9.98511C104.859 9.98511 106.013 10.2836 106.909 10.8806C107.825 11.4578 108.502 12.0846 108.94 12.7612V10.3134H111ZM103.446 22.9702C104.441 22.9702 105.357 22.7314 106.193 22.2538C107.029 21.7562 107.686 21.0896 108.163 20.2538C108.661 19.418 108.91 18.5025 108.91 17.5075C108.91 16.5125 108.661 15.597 108.163 14.7612C107.686 13.9055 107.029 13.2388 106.193 12.7612C105.357 12.2637 104.441 12.015 103.446 12.015C102.451 12.015 101.525 12.2637 100.669 12.7612C99.8327 13.2388 99.166 13.9055 98.668 14.7612C98.1907 15.597 97.952 16.5125 97.952 17.5075C97.952 18.5025 98.1907 19.418 98.668 20.2538C99.166 21.0896 99.8327 21.7562 100.669 22.2538C101.525 22.7314 102.451 22.9702 103.446 22.9702Z" fill="white"/>
</svg>
