<svg width="80" height="80" viewBox="0 0 80 80" fill="none" xmlns="http://www.w3.org/2000/svg">
<path opacity="0.24" d="M42.1399 51.7799C42.0429 50.8209 41.7275 49.8968 41.2179 49.0786C40.7082 48.2604 40.0179 47.5699 39.1999 47.0599C38.1999 46.5299 37.1099 46.6399 36.1299 46.2899C34.5499 45.7199 34.8999 45.8499 33.8699 44.1599C33.1252 42.8852 32.1046 41.7934 30.883 40.9645C29.6613 40.1357 28.2696 39.5908 26.8099 39.3699C26.4095 39.0556 25.9447 38.8334 25.4486 38.7194C24.9525 38.6053 24.4374 38.6021 23.9399 38.7099C19.2699 39.5999 9.2699 41.7099 9.2699 48.0099C9.27002 48.6164 9.43 49.2121 9.73372 49.7371C10.0374 50.262 10.4742 50.6976 10.9999 50.9999C12.3745 51.6325 13.8976 51.8713 15.3999 51.6899C15.2199 52.1499 15.0499 52.6099 14.8999 53.0799C14.2799 54.9999 13.5499 57.3399 14.2699 59.3199C15.2699 62.1499 17.0099 62.3999 18.8899 61.9799C18.1199 64.4899 17.8899 67.0499 19.8899 69.0699C22.6399 71.8499 26.4299 69.9299 29.5999 67.9599C29.9838 68.3273 30.4451 68.6041 30.9499 68.7699C31.9578 69.0578 33.027 69.0517 34.0315 68.7523C35.036 68.4529 35.9341 67.8727 36.6199 67.08C40.1299 63.5399 42.9399 56.8299 42.1399 51.7799Z" fill="#F1F1F1"/>
<path d="M34.6802 28.64C41.6802 20.4 53.2102 15.06 63.2102 15.23C63.4715 15.2422 63.7189 15.3515 63.9038 15.5364C64.0888 15.7214 64.1981 15.9687 64.2102 16.23C64.4402 26.23 59.0402 37.72 50.7702 44.78L48.1402 46.91L38.7902 54.46C38.6008 54.6375 38.3498 54.7343 38.0902 54.73C37.9522 54.7322 37.8152 54.7058 37.6878 54.6525C37.5604 54.5991 37.4455 54.52 37.3502 54.42L25.1502 41.92C24.9667 41.7252 24.8645 41.4677 24.8645 41.2C24.8645 40.9324 24.9667 40.6748 25.1502 40.48L31.5402 32.54" stroke="white" stroke-width="1.5" stroke-linecap="round" stroke-linejoin="round"/>
<path d="M48.74 25.4C47.5125 25.391 46.3199 25.8075 45.3649 26.5786C44.4099 27.3498 43.7516 28.428 43.5019 29.6298C43.2522 30.8316 43.4266 32.0828 43.9954 33.1705C44.5642 34.2582 45.4923 35.1153 46.6217 35.5959C47.7512 36.0765 49.0123 36.151 50.1904 35.8067C51.3686 35.4624 52.3911 34.7205 53.084 33.7073C53.7769 32.6941 54.0973 31.4721 53.9909 30.2493C53.8844 29.0264 53.3575 27.8782 52.5 27C51.5008 26.0067 50.1489 25.4494 48.74 25.45V25.4Z" stroke="white" stroke-width="1.5" stroke-linecap="round" stroke-linejoin="round"/>
<path d="M42.5098 51.68L27.7898 37" stroke="white" stroke-width="1.5" stroke-linecap="round" stroke-linejoin="round"/>
<path d="M23.56 46.21C20.0084 48.7384 15.8438 50.2681 11.5 50.64L11.67 52.64C16.3541 52.2363 20.8438 50.582 24.67 47.85L23.56 46.21ZM31.07 54.09C27.7393 58.061 25.2216 62.6479 23.66 67.59L25.58 68.17C27.0838 63.5115 29.4593 59.1814 32.58 55.41L31.07 54.09ZM27.07 49.85L18.07 59.16L19.51 60.55L28.51 51.24L27.07 49.85Z" fill="url(#paint0_linear_511_474)"/>
<path d="M57.2102 17.8501L61.6402 22.2701" stroke="white" stroke-width="1.5" stroke-linecap="round" stroke-linejoin="round"/>
<path d="M52.8501 46.2598V50.9698L46.8301 56.9898L43.4801 53.6498" stroke="white" stroke-width="1.5" stroke-linecap="round" stroke-linejoin="round"/>
<path d="M33.1798 26.6499H28.4698L22.4498 32.6699L25.7998 36.0199" stroke="white" stroke-width="1.5" stroke-linecap="round" stroke-linejoin="round"/>
<defs>
<linearGradient id="paint0_linear_511_474" x1="22.0401" y1="46.2086" x2="22.0363" y2="68.1683" gradientUnits="userSpaceOnUse">
<stop stop-color="#40ED99"/>
<stop offset="0.45" stop-color="#3FEB98"/>
<stop offset="0.65" stop-color="#3DE493"/>
<stop offset="0.79" stop-color="#3AD78B"/>
<stop offset="0.91" stop-color="#35C680"/>
<stop offset="1" stop-color="#30B273"/>
</linearGradient>
</defs>
</svg>
