<svg width="80" height="80" viewBox="0 0 80 80" fill="none" xmlns="http://www.w3.org/2000/svg">
<path opacity="0.24" d="M58.336 34.0241C58.04 32.1041 57.616 18.8241 43.736 17.0321C38.736 16.3841 26.792 17.1761 22.72 25.5921C19.6 32.0481 19.848 40.3041 24.272 45.3201C39.824 62.9521 60.32 46.7921 58.336 34.0241Z" fill="#F1F1F1"/>
<path d="M20.0721 59.0956C46.4721 51.4476 55.9521 64.1196 63.7121 55.5436C68.28 50.4956 73.872 21.3036 66.1121 14.7036C60.4481 9.90359 15.9121 10.0476 12.9201 16.8876C3.57612 38.2396 19.8401 69.2633 22.2321 68.5993C24.6241 67.9353 23.8881 58.1036 23.8881 58.1036" stroke="white" stroke-width="1.5" stroke-linecap="round" stroke-linejoin="round"/>
<g opacity="0.8">
<path opacity="0.8" d="M43.7278 32.2245C44.1966 32.2311 44.6533 32.3748 45.0413 32.6379C45.4294 32.9011 45.7318 33.2721 45.9114 33.7052C46.0909 34.1383 46.1397 34.6145 46.0516 35.0751C45.9636 35.5356 45.7425 35.9602 45.4158 36.2965L39.3038 42.4005L33.1918 36.2965C32.8176 35.8357 32.6275 35.2525 32.6582 34.6596C32.6888 34.0668 32.9381 33.5063 33.3579 33.0865C33.7776 32.6668 34.3381 32.4175 34.931 32.3868C35.5238 32.3561 36.107 32.5463 36.5678 32.9205L36.9278 33.2885L38.1758 34.5285L39.3038 35.6645L42.0478 32.9205C42.4949 32.4771 43.0982 32.2271 43.7278 32.2245ZM43.7278 30.6245C42.6718 30.6269 41.6595 31.0467 40.9118 31.7925L39.3038 33.4005L38.0638 32.1525L37.6958 31.7925C36.9256 31.2148 35.9727 30.9343 35.0123 31.0026C34.0518 31.0708 33.1482 31.4833 32.4674 32.1641C31.7866 32.8449 31.3742 33.7485 31.3059 34.7089C31.2376 35.6694 31.5181 36.6222 32.0958 37.3925L39.1278 44.4245C39.1547 44.4526 39.187 44.4749 39.2228 44.4902C39.2585 44.5055 39.297 44.5133 39.3358 44.5133C39.3747 44.5133 39.4132 44.5055 39.4489 44.4902C39.4847 44.4749 39.517 44.4526 39.5438 44.4245L46.5758 37.3925C47.1249 36.8325 47.4972 36.1233 47.6464 35.3533C47.7956 34.5833 47.7152 33.7865 47.4151 33.0619C47.115 32.3373 46.6086 31.7168 45.9586 31.2778C45.3088 30.8387 44.5441 30.6004 43.7598 30.5925L43.7278 30.6245Z" fill="url(#paint0_linear_511_495)"/>
</g>
<path d="M25.0239 37.5847H28.7039" stroke="white" stroke-width="1.5" stroke-linecap="round" stroke-linejoin="round"/>
<path d="M49.9599 37.5847H53.6479" stroke="white" stroke-width="1.5" stroke-linecap="round" stroke-linejoin="round"/>
<path d="M39.336 26.9522V23.2722" stroke="white" stroke-width="1.5" stroke-linecap="round" stroke-linejoin="round"/>
<path d="M27.6159 26.6641L30.2159 29.2641" stroke="white" stroke-width="1.5" stroke-linecap="round" stroke-linejoin="round"/>
<path d="M48.4481 29.2641L51.0561 26.6641" stroke="white" stroke-width="1.5" stroke-linecap="round" stroke-linejoin="round"/>
<defs>
<linearGradient id="paint0_linear_511_495" x1="39.5077" y1="30.5917" x2="39.5058" y2="44.5123" gradientUnits="userSpaceOnUse">
<stop stop-color="#40ED99"/>
<stop offset="0.45" stop-color="#3FEB98"/>
<stop offset="0.65" stop-color="#3DE493"/>
<stop offset="0.79" stop-color="#3AD78B"/>
<stop offset="0.91" stop-color="#35C680"/>
<stop offset="1" stop-color="#30B273"/>
</linearGradient>
</defs>
</svg>
