<svg width="80" height="80" viewBox="0 0 80 80" fill="none" xmlns="http://www.w3.org/2000/svg">
<path opacity="0.04" d="M45.1568 23.466L49.682 31.9829C50.2991 33.1685 51.9446 34.3057 53.333 34.5234L61.535 35.8058C66.7801 36.6285 68.0142 40.2094 64.2347 43.742L57.8582 49.7425C56.7783 50.7587 56.187 52.7186 56.5212 54.1219L58.3467 61.55C59.7866 67.4295 56.4698 69.7039 50.9419 66.6311L43.2541 62.3484C41.8657 61.5742 39.5774 61.5742 38.1633 62.3484L30.4755 66.6311C24.9733 69.7039 21.6308 67.4053 23.0706 61.55L24.8962 54.1219C25.2304 52.7186 24.639 50.7587 23.5592 49.7425L17.1827 43.742C13.4289 40.2094 14.6373 36.6285 19.8824 35.8058L28.0844 34.5234C29.4471 34.3057 31.0926 33.1685 31.7097 31.9829L36.2349 23.466C38.7032 18.8447 42.7142 18.8447 45.1568 23.466Z" fill="#F1F1F1"/>
<path opacity="0.32" d="M47.3086 24.9477C45.0289 24.5628 29.6294 20.0658 22.2318 34.7113C19.5531 39.9889 15.8372 53.4799 23.8845 61.0995C30.0512 66.9819 39.5804 69.7856 47.035 66.784C73.2403 56.2067 62.6966 27.5315 47.3086 24.9477Z" fill="#F1F1F1"/>
<path d="M43.0441 33.0989L45.6017 38.2563C45.9504 38.9742 46.8805 39.6629 47.6652 39.7947L52.3008 40.5713C55.2653 41.0694 55.9628 43.2379 53.8266 45.377L50.2228 49.0107C49.6124 49.6261 49.2782 50.8129 49.4671 51.6627L50.4989 56.1608C51.3126 59.7211 49.438 61.0984 46.3137 59.2376L41.9688 56.6443C41.1841 56.1754 39.8907 56.1754 39.0915 56.6443L34.7465 59.2376C31.6367 61.0984 29.7476 59.7065 30.5614 56.1608L31.5931 51.6627C31.7821 50.8129 31.4478 49.6261 30.8375 49.0107L27.2336 45.377C25.112 43.2379 25.795 41.0694 28.7595 40.5713L33.3951 39.7947C34.1653 39.6629 35.0953 38.9742 35.444 38.2563L38.0016 33.0989C39.3967 30.3004 41.6636 30.3004 43.0441 33.0989Z" stroke="url(#paint0_linear_578_4746)" stroke-width="3" stroke-linecap="round" stroke-linejoin="round"/>
<path d="M8 45.0012L15.4286 42.7144" stroke="white" stroke-width="3" stroke-linecap="round" stroke-linejoin="round"/>
<path d="M63.4286 42.7144L72 45.0012" stroke="white" stroke-width="3" stroke-linecap="round" stroke-linejoin="round"/>
<path d="M40.0002 21.2281V13" stroke="white" stroke-width="3" stroke-linecap="round" stroke-linejoin="round"/>
<path d="M13.7955 20.584L19.6088 26.3973" stroke="white" stroke-width="3" stroke-linecap="round" stroke-linejoin="round"/>
<path d="M60.3738 26.3973L66.205 20.584" stroke="white" stroke-width="3" stroke-linecap="round" stroke-linejoin="round"/>
<defs>
<linearGradient id="paint0_linear_578_4746" x1="40.5334" y1="30.9982" x2="40.5286" y2="60.0644" gradientUnits="userSpaceOnUse">
<stop stop-color="#40ED99"/>
<stop offset="0.45" stop-color="#3FEB98"/>
<stop offset="0.65" stop-color="#3DE493"/>
<stop offset="0.79" stop-color="#3AD78B"/>
<stop offset="0.91" stop-color="#35C680"/>
<stop offset="1" stop-color="#30B273"/>
</linearGradient>
</defs>
</svg>
