<svg width="80" height="80" viewBox="0 0 80 80" fill="none" xmlns="http://www.w3.org/2000/svg">
<path opacity="0.24" d="M53.7687 47.1124C53.038 45.5062 52.0455 44.0326 50.8317 42.7517C50.1782 42.0733 49.4578 41.4629 48.6812 40.9298L48.3527 40.7207C49.398 38.2915 49.0695 34.8467 48.263 32.3776C47.8789 31.079 47.1611 29.9038 46.1811 28.9692C45.201 28.0346 43.9931 27.3733 42.6778 27.0512C39.92 26.3642 36.9232 26.6729 34.1156 26.7227C32.7417 26.7227 31.2583 26.6231 30.0735 27.4196C29.5831 27.7828 29.1801 28.2512 28.8942 28.7904C28.6082 29.3296 28.4465 29.926 28.4208 30.5358C28.3606 31.8812 28.7494 33.2086 29.5259 34.3091C30.3622 35.5835 31.5868 36.6487 32.1045 38.1123C32.3861 39.0083 32.5861 39.928 32.7019 40.8601C32.717 41.5111 32.845 42.1545 33.0802 42.7617C28.1022 47.5903 24.2393 54.6391 24.9362 61.678C25.2449 64.7643 27.0071 69.7125 31.099 68.0697C31.766 67.8009 32.4729 67.0741 33.1997 67.0144C33.9265 66.9547 34.8126 67.7511 35.39 68.1394C37 69.2628 38.9226 69.8514 40.8857 69.822C42.8769 69.7622 44.5495 68.8264 46.3814 68.1295C47.2028 67.7759 48.0984 67.6288 48.9898 67.7014C49.979 67.8918 50.9974 67.868 51.9766 67.6317C55.3716 66.5465 55.7997 62.4048 55.8594 59.3981C55.8993 55.2763 55.5408 50.9953 53.7687 47.1124Z" fill="#F1F1F1"/>
<path d="M44.3701 35.3058C44.3701 35.3058 46.1522 31.1542 42.2395 30.0889C38.3268 29.0236 36.266 32.0801 30.3621 30.0889C30.3621 30.0889 30.7205 35.1863 34.8223 35.3058C36.7538 35.3655 38.9939 35.3655 40.7959 35.3556" stroke="white" stroke-width="1.5" stroke-linecap="round" stroke-linejoin="round"/>
<path d="M34.8226 35.3044C34.8226 35.3044 33.5582 45.4595 37.5704 45.2604C40.8858 45.1111 43.9422 43.5778 44.7785 38.0324" stroke="white" stroke-width="1.5" stroke-linecap="round" stroke-linejoin="round"/>
<path d="M49.5572 69.9214C49.5572 69.9214 56.0087 50.3181 44.7784 45.2605" stroke="white" stroke-width="1.5" stroke-linecap="round" stroke-linejoin="round"/>
<path d="M37.5702 45.2605C37.5702 45.2605 24.4582 45.9176 28.2713 69.0652" stroke="white" stroke-width="1.5" stroke-linecap="round" stroke-linejoin="round"/>
<path opacity="0.8" d="M61.5441 39.5065C69.8972 27.5594 72.4957 16.4684 67.5177 11.5203C62.5397 6.5722 51.4289 9.22048 39.5415 17.5138C27.674 9.22048 16.583 6.50251 11.5453 11.5203C6.5076 16.5381 9.1758 27.5394 17.5786 39.5165C9.28531 51.384 6.56734 62.4948 11.6051 67.5126C12.5389 68.38 13.6361 69.053 14.8325 69.4923C16.029 69.9316 17.3009 70.1284 18.5742 70.0713C20.3306 70.045 22.0767 69.7975 23.7712 69.3345L23.0245 66.4473C20.0377 67.2338 15.906 67.6819 13.6162 65.4019C10.1614 61.9472 12.073 52.7778 19.3607 42.0552C20.7745 43.907 22.3475 45.7788 23.9803 47.6405L26.2104 45.6493C24.3785 43.6581 22.696 41.5375 21.1827 39.4965C26.4028 32.5606 32.573 26.3939 39.5116 21.1776C42.9822 23.7776 46.2597 26.6258 49.3182 29.6999C52.3836 32.7566 55.2282 36.0271 57.8305 39.4866C56.3836 41.4778 54.794 43.4358 53.0616 45.3606L55.2918 47.3518C56.8648 45.5896 58.2786 43.8174 59.6525 42.0652C66.9402 52.7778 68.8518 61.9771 65.3971 65.4119C63.5253 67.2737 59.991 67.5922 55.4411 66.3079L54.6645 69.1553C56.5562 69.7176 58.5157 70.0191 60.4888 70.0514C61.7769 70.1211 63.066 69.9306 64.2788 69.4909C65.4916 69.0513 66.6033 68.3717 67.5476 67.4927C72.5654 62.4948 69.8374 51.374 61.5441 39.5065ZM27.6242 27.5594C24.6829 30.4914 21.9421 33.618 19.4205 36.918C12.4911 26.743 9.94241 17.3844 13.656 13.631C17.1207 10.1663 26.2901 12.0778 37.0126 19.3756C33.7034 21.9008 30.5668 24.6448 27.6242 27.5892V27.5594ZM51.4687 27.5594C48.5262 24.6278 45.3932 21.8939 42.0902 19.3756C52.8028 12.0878 62.0021 10.1862 65.4369 13.6409C69.1405 17.3844 66.5818 26.743 59.6724 36.9478C57.138 33.6466 54.384 30.5199 51.4289 27.5892L51.4687 27.5594Z" fill="url(#paint0_linear_515_539)"/>
<path d="M31.726 58.7114C31.726 58.7114 30.1729 67.4129 40.3977 67.393C43.484 67.393 46.0128 67.1342 46.9387 57.1284" stroke="white" stroke-width="1.5" stroke-linecap="round" stroke-linejoin="round"/>
<defs>
<linearGradient id="paint0_linear_515_539" x1="39.5338" y1="8.99619" x2="39.5236" y2="70.0764" gradientUnits="userSpaceOnUse">
<stop stop-color="#40ED99"/>
<stop offset="0.45" stop-color="#3FEB98"/>
<stop offset="0.65" stop-color="#3DE493"/>
<stop offset="0.79" stop-color="#3AD78B"/>
<stop offset="0.91" stop-color="#35C680"/>
<stop offset="1" stop-color="#30B273"/>
</linearGradient>
</defs>
</svg>
