<svg width="80" height="80" viewBox="0 0 80 80" fill="none" xmlns="http://www.w3.org/2000/svg">
<path opacity="0.24" d="M47.14 19.65C45.14 19.3 31.63 15.2099 25.14 28.53C22.79 33.33 19.53 45.6 26.59 52.53C32 57.88 40.36 60.43 46.9 57.7C69.89 48.08 60.64 22 47.14 19.65Z" fill="#F1F1F1"/>
<path d="M51.23 39.62V37.62H48.16C47.9885 36.2972 47.4672 35.0442 46.65 33.99L48.83 31.87L47.41 30.45L45.24 32.63C44.1858 31.8128 42.9328 31.2916 41.61 31.12V28H39.61V31.07C38.2908 31.2433 37.0414 31.7644 35.99 32.58L33.8201 30.4L32.4 31.87L34.5701 34.04C33.7598 35.0972 33.2424 36.3492 33.0701 37.67H30V39.67H33.0701C33.2446 40.9871 33.7618 42.2354 34.5701 43.29L32.4 45.47L33.8201 46.87L35.99 44.7C37.0422 45.5124 38.2917 46.0301 39.61 46.2V49.27H41.61V46.16C42.9319 45.9918 44.185 45.474 45.24 44.66L47.41 46.87L48.83 45.46L46.65 43.28C47.4656 42.2286 47.9867 40.9792 48.16 39.66L51.23 39.62ZM40.61 44.24C39.4985 44.24 38.4119 43.9104 37.4877 43.2928C36.5635 42.6753 35.8432 41.7976 35.4178 40.7707C34.9925 39.7437 34.8812 38.6137 35.098 37.5236C35.3149 36.4334 35.8501 35.432 36.6361 34.646C37.4221 33.8601 38.4235 33.3248 39.5136 33.108C40.6038 32.8911 41.7338 33.0024 42.7607 33.4278C43.7876 33.8531 44.6654 34.5735 45.2829 35.4977C45.9004 36.4219 46.23 37.5085 46.23 38.62C46.2274 40.1097 45.6344 41.5376 44.5811 42.591C43.5277 43.6444 42.0998 44.2373 40.61 44.24Z" fill="url(#paint0_linear_511_490)"/>
<path d="M25.9543 70C23.8447 70 21.8214 69.1373 20.3297 67.6019C18.838 66.0665 18 63.9839 18 61.8125V16.1763C18.0028 14.0068 18.8422 11.9271 20.3336 10.3941C21.825 8.86109 23.8466 8 25.9543 8H54.0457C56.1553 8 58.1786 8.86265 59.6702 10.398C61.1619 11.9335 62 14.0161 62 16.1875V61.8125C62 63.9839 61.1619 66.0665 59.6702 67.6019C58.1786 69.1373 56.1553 70 54.0457 70" stroke="white" stroke-width="1.5" stroke-linejoin="round"/>
<path d="M54.0457 8C56.1553 8 58.1786 8.86265 59.6703 10.3981C61.162 11.9335 62 14.0161 62 16.1875V61.8237C61.9972 63.9932 61.1578 66.0729 59.6664 67.6059C58.175 69.1389 56.1534 70 54.0457 70H25.9543C23.8447 70 21.8214 69.1373 20.3298 67.602C18.8381 66.0665 18 63.9839 18 61.8125V16.1875C18 14.0161 18.8381 11.9335 20.3298 10.3981C21.8214 8.86265 23.8447 8 25.9543 8" stroke="white" stroke-width="1.5" stroke-linejoin="round"/>
<path d="M40.13 67.1101C40.7541 67.1101 41.26 66.6042 41.26 65.9801C41.26 65.356 40.7541 64.8501 40.13 64.8501C39.5059 64.8501 39 65.356 39 65.9801C39 66.6042 39.5059 67.1101 40.13 67.1101Z" fill="white"/>
<defs>
<linearGradient id="paint0_linear_511_490" x1="40.6151" y1="27.9987" x2="40.6115" y2="49.2684" gradientUnits="userSpaceOnUse">
<stop stop-color="#40ED99"/>
<stop offset="0.45" stop-color="#3FEB98"/>
<stop offset="0.65" stop-color="#3DE493"/>
<stop offset="0.79" stop-color="#3AD78B"/>
<stop offset="0.91" stop-color="#35C680"/>
<stop offset="1" stop-color="#30B273"/>
</linearGradient>
</defs>
</svg>
